<svg width="15" height="15" viewBox="0 0 15 15" fill="none" xmlns="http://www.w3.org/2000/svg">
<path d="M7.5 0C4.39819 0 1.875 2.52349 1.875 5.625C1.875 9.77479 7.06482 14.707 7.28578 14.9152C7.34619 14.9716 7.4231 15 7.5 15C7.5769 15 7.65381 14.9716 7.71425 14.9152C7.93518 14.707 13.125 9.77479 13.125 5.625C13.125 2.52349 10.6018 0 7.5 0ZM7.5 14.2502C6.51794 13.2697 2.49999 9.04784 2.49999 5.625C2.49999 2.86805 4.74305 0.62499 7.5 0.62499C10.257 0.62499 12.5 2.86805 12.5 5.625C12.5 9.04784 8.48206 13.2697 7.5 14.2502Z" fill="#844476"/>
<path d="M7.49998 2.5C5.77694 2.5 4.37497 3.90197 4.37497 5.62501C4.37497 7.34805 5.77697 8.75002 7.49998 8.75002C9.22299 8.75002 10.625 7.34805 10.625 5.62501C10.625 3.90197 9.22302 2.5 7.49998 2.5ZM7.49998 8.125C6.12118 8.125 4.99999 7.00349 4.99999 5.62501C4.99999 4.24653 6.12121 3.12502 7.49998 3.12502C8.87876 3.12502 9.99998 4.24653 9.99998 5.62501C9.99998 7.00349 8.87878 8.125 7.49998 8.125Z" fill="#844476"/>
</svg>
