<svg width="60" height="60" viewBox="0 0 60 60" fill="none" xmlns="http://www.w3.org/2000/svg">
<path d="M41.3369 34.1574H10.4038L37.1905 17.1261C37.2684 17.0765 37.3358 17.0121 37.3889 16.9365C37.4419 16.8609 37.4796 16.7756 37.4996 16.6854C37.5197 16.5953 37.5218 16.5021 37.5058 16.4111C37.4899 16.3201 37.4561 16.2332 37.4066 16.1553L34.7526 11.9813C34.1474 11.0317 33.1901 10.3609 32.0909 10.1161C30.9917 9.8714 29.8404 10.0727 28.8894 10.6758L25.12 13.0724L25.4186 11.6438C25.5363 11.1273 25.5508 10.5926 25.4612 10.0705C25.3717 9.54836 25.1798 9.04908 24.8967 8.60133C24.6136 8.15358 24.2448 7.76618 23.8115 7.4614C23.3782 7.15661 22.8889 6.94045 22.3718 6.82532C21.8548 6.7102 21.32 6.69838 20.7983 6.79055C20.2767 6.88272 19.7783 7.07706 19.332 7.36241C18.8857 7.64775 18.5001 8.01848 18.1975 8.45328C17.8949 8.88809 17.6811 9.37841 17.5686 9.89607L15.6104 18.6915L9.05363 17.232C8.07582 17.0141 7.05188 17.169 6.18228 17.6664C5.31268 18.1638 4.66005 18.9679 4.35218 19.9212C4.04431 20.8745 4.10336 21.9084 4.51777 22.8205C4.93219 23.7325 5.67212 24.4571 6.5927 24.8522L2.55465 27.4198C1.60504 28.0251 0.934284 28.9823 0.689545 30.0814C0.444806 31.1806 0.64607 32.332 1.24918 33.2829L3.90313 37.4571C3.95266 37.535 4.01706 37.6024 4.09265 37.6555C4.16824 37.7085 4.25354 37.7461 4.34367 37.7662C4.43381 37.7863 4.52702 37.7884 4.61798 37.7725C4.70893 37.7565 4.79586 37.7228 4.87379 37.6733L7.3441 36.1029V53.9023C7.34537 55.0284 7.7933 56.1081 8.58961 56.9043C9.38591 57.7006 10.4656 58.1485 11.5917 58.1497H37.7929C38.919 58.1484 39.9986 57.7005 40.7949 56.9042C41.5911 56.108 42.039 55.0284 42.0403 53.9023V34.8605C42.0403 34.7682 42.0221 34.6767 41.9867 34.5914C41.9514 34.5061 41.8996 34.4286 41.8343 34.3633C41.7689 34.298 41.6914 34.2462 41.6061 34.2109C41.5207 34.1755 41.4293 34.1574 41.3369 34.1574ZM29.6439 11.8627C30.0975 11.5727 30.6245 11.4184 31.1628 11.4181C31.3724 11.4182 31.5813 11.4413 31.7858 11.4869C32.1503 11.5671 32.4954 11.7187 32.8009 11.9331C33.1065 12.1475 33.3665 12.4203 33.5659 12.7359L35.8426 16.3165L24.7684 23.3579L20.9673 17.3797L29.6439 11.8627ZM18.9412 10.2018C19.0931 9.52512 19.5076 8.93649 20.0935 8.56541C20.6794 8.19433 21.3887 8.0712 22.0654 8.2231C22.7421 8.37501 23.3308 8.7895 23.7018 9.37541C24.0729 9.96131 24.196 10.6706 24.0441 11.3473L23.4669 14.1087L17.1778 18.1223L18.9412 10.2018ZM19.7803 18.1342L23.5814 24.1124L17.1642 28.1924L13.3632 22.2142L19.7803 18.1342ZM5.97312 22.5602C5.69561 22.1237 5.55374 21.6148 5.56547 21.0977C5.5772 20.5807 5.742 20.0787 6.03902 19.6553C6.33604 19.2319 6.75195 18.9061 7.23415 18.7191C7.71635 18.5321 8.24317 18.4922 8.74801 18.6046L14.4298 19.8695L8.12258 23.8233L7.61141 23.7094C7.27591 23.6357 6.95837 23.4962 6.67716 23.2989C6.39595 23.1016 6.15666 22.8505 5.97312 22.5602ZM4.71277 36.1093L2.43617 32.5285C2.03274 31.8924 1.89809 31.1223 2.06176 30.387C2.22543 29.6518 2.67406 29.0115 3.30922 28.6066L12.1764 22.9688L15.9774 28.947L4.71277 36.1093ZM18.3479 56.7434H11.5917C10.8384 56.7425 10.1163 56.4429 9.58368 55.9103C9.05106 55.3777 8.75145 54.6556 8.75059 53.9023V35.5637H18.3482L18.3479 56.7434ZM27.2851 56.7434H19.7541V35.5637H27.2851V56.7434ZM40.6338 53.9023C40.6329 54.6555 40.3333 55.3776 39.8008 55.9102C39.2682 56.4429 38.5461 56.7425 37.7929 56.7434H28.6913V35.5637H40.6338V53.9023Z" fill="#A55C95"/>
<path d="M49.1993 27.77L49.5357 25.8088C49.5578 25.6796 49.5433 25.5467 49.4939 25.4252C49.4445 25.3037 49.3621 25.1985 49.256 25.1214C49.1499 25.0443 49.0244 24.9984 48.8935 24.9889C48.7627 24.9794 48.6319 25.0067 48.5158 25.0676L46.7547 25.9934L44.9935 25.0676C44.8773 25.0066 44.7464 24.9792 44.6156 24.9887C44.4847 24.9981 44.3591 25.044 44.253 25.1211C44.1468 25.1982 44.0644 25.3035 44.0149 25.4251C43.9655 25.5466 43.951 25.6795 43.9732 25.8088L44.3096 27.77L42.8848 29.1586C42.7908 29.2502 42.7243 29.3663 42.6929 29.4937C42.6614 29.621 42.6662 29.7547 42.7068 29.8795C42.7473 30.0043 42.822 30.1152 42.9223 30.1998C43.0226 30.2844 43.1446 30.3392 43.2744 30.3581L45.2432 30.6442L46.1237 32.4284C46.1818 32.5461 46.2716 32.6452 46.3831 32.7145C46.4945 32.7838 46.6231 32.8205 46.7543 32.8205C46.8855 32.8205 47.0142 32.7838 47.1256 32.7145C47.237 32.6452 47.3269 32.5461 47.3849 32.4284L48.2653 30.6442L50.2341 30.3581C50.3639 30.3392 50.4859 30.2844 50.5863 30.1998C50.6866 30.1152 50.7612 30.0043 50.8018 29.8795C50.8423 29.7547 50.8471 29.621 50.8157 29.4937C50.7842 29.3663 50.7177 29.2502 50.6237 29.1586L49.1993 27.77ZM47.6973 29.3051C47.5845 29.3215 47.4774 29.3651 47.3851 29.4321C47.2929 29.4991 47.2183 29.5875 47.1679 29.6897L46.7543 30.5279L46.3407 29.6897C46.2902 29.5875 46.2157 29.4991 46.1234 29.4321C46.0312 29.3651 45.9241 29.3215 45.8113 29.3051L44.8862 29.1707L45.5556 28.5183C45.6373 28.4388 45.6983 28.3405 45.7336 28.2321C45.7688 28.1237 45.7771 28.0083 45.7579 27.896L45.5998 26.9746L46.4271 27.4095C46.528 27.4626 46.6403 27.4904 46.7543 27.4904C46.8683 27.4904 46.9806 27.4626 47.0815 27.4095L47.9087 26.9746L47.7508 27.896C47.7315 28.0083 47.7398 28.1237 47.775 28.2321C47.8102 28.3405 47.8713 28.4388 47.9529 28.5183L48.6223 29.1707L47.6973 29.3051Z" fill="#A55C95"/>
<path d="M57.2862 18.082L55.3526 17.6121L54.6435 15.7532C54.5967 15.6306 54.5166 15.5235 54.4122 15.444C54.3078 15.3645 54.1832 15.3159 54.0525 15.3036C53.9219 15.2912 53.7904 15.3157 53.673 15.3742C53.5555 15.4327 53.4568 15.5229 53.3879 15.6346L52.3437 17.3283L50.3565 17.4282C50.2255 17.4348 50.0989 17.478 49.9911 17.5527C49.8833 17.6275 49.7986 17.7309 49.7465 17.8513C49.6944 17.9717 49.6771 18.1043 49.6964 18.2341C49.7157 18.3638 49.771 18.4856 49.8559 18.5856L51.1439 20.1021L50.6251 22.0228C50.5909 22.1495 50.5928 22.2832 50.6306 22.4088C50.6683 22.5345 50.7405 22.647 50.839 22.7338C50.9374 22.8205 51.0581 22.878 51.1875 22.8997C51.3169 22.9214 51.4498 22.9065 51.5712 22.8566L53.411 22.1003L55.0782 23.1874C55.1881 23.2591 55.3158 23.2986 55.447 23.3015C55.5782 23.3044 55.7075 23.2705 55.8204 23.2037C55.9333 23.1369 56.0253 23.0398 56.0859 22.9235C56.1465 22.8071 56.1734 22.6762 56.1635 22.5454L56.0129 20.5614L57.5613 19.3125C57.6634 19.2302 57.7404 19.1209 57.7837 18.9971C57.8269 18.8732 57.8347 18.7398 57.8061 18.6118C57.7774 18.4838 57.7136 18.3663 57.6217 18.2727C57.5298 18.1791 57.4136 18.1131 57.2862 18.082ZM54.8421 19.6992C54.7534 19.7708 54.6834 19.8628 54.6381 19.9675C54.5929 20.0721 54.5738 20.1862 54.5824 20.2998L54.6527 21.2318L53.8698 20.721C53.7743 20.6587 53.6651 20.6206 53.5516 20.6099C53.4382 20.5992 53.3238 20.6162 53.2183 20.6596L52.354 21.0149L52.5977 20.1125C52.6274 20.0025 52.63 19.8869 52.6051 19.7756C52.5802 19.6644 52.5287 19.5609 52.4549 19.474L51.8498 18.7616L52.7833 18.7147C52.8972 18.709 53.008 18.6758 53.1061 18.6177C53.2042 18.5597 53.2868 18.4787 53.3467 18.3817L53.8371 17.5861L54.1701 18.4594C54.2108 18.5659 54.2767 18.6609 54.3622 18.7362C54.4477 18.8116 54.5503 18.865 54.661 18.8919L55.5694 19.1127L54.8421 19.6992Z" fill="#A55C95"/>
<path d="M46.9452 6.65188L46.4262 8.57258C46.392 8.69925 46.3938 8.83297 46.4316 8.95863C46.4694 9.08428 46.5416 9.19686 46.64 9.28363C46.7385 9.37039 46.8592 9.42788 46.9886 9.4496C47.118 9.47131 47.2509 9.45638 47.3723 9.40649L49.2121 8.65005L50.8786 9.73743C50.9885 9.80911 51.1163 9.84862 51.2475 9.85149C51.3786 9.85436 51.508 9.82047 51.6209 9.75366C51.7338 9.68684 51.8258 9.58977 51.8864 9.47341C51.947 9.35706 51.9739 9.22606 51.9639 9.09524L51.8133 7.11126L53.3621 5.86227C53.4642 5.77992 53.5412 5.67066 53.5845 5.54683C53.6277 5.423 53.6355 5.28955 53.6068 5.16154C53.5782 5.03354 53.5144 4.91609 53.4225 4.82248C53.3306 4.72887 53.2144 4.66282 53.0869 4.6318L51.1533 4.162L50.4444 2.30294C50.3976 2.18033 50.3175 2.07326 50.213 1.99383C50.1086 1.9144 49.984 1.86578 49.8534 1.85346C49.7227 1.84115 49.5913 1.86563 49.4738 1.92415C49.3564 1.98266 49.2576 2.07287 49.1888 2.18458L48.1447 3.87817L46.1574 3.97801C46.0264 3.98459 45.8998 4.02769 45.792 4.10245C45.6842 4.17721 45.5994 4.28064 45.5473 4.40105C45.4952 4.52146 45.4778 4.65405 45.4972 4.78381C45.5165 4.91358 45.5717 5.03535 45.6567 5.13536L46.9452 6.65188ZM48.5848 5.26391C48.6987 5.25819 48.8094 5.22488 48.9075 5.16684C49.0057 5.1088 49.0882 5.02778 49.148 4.93075L49.6386 4.13516L49.9716 5.00844C50.0122 5.11495 50.0782 5.20998 50.1637 5.28536C50.2492 5.36073 50.3517 5.41418 50.4625 5.4411L51.3707 5.66176L50.6432 6.2484C50.5545 6.31995 50.4845 6.41201 50.4392 6.51663C50.3939 6.62126 50.3748 6.73532 50.3834 6.84899L50.4537 7.7811L49.6708 7.27028C49.5753 7.20801 49.4661 7.16988 49.3527 7.15918C49.2392 7.14848 49.1248 7.16554 49.0194 7.20887L48.155 7.56419L48.3987 6.66184C48.4285 6.55178 48.431 6.43614 48.4061 6.32487C48.3813 6.21361 48.3297 6.11007 48.2559 6.02317L47.6508 5.31067L48.5848 5.26391Z" fill="#A55C95"/>
<path d="M34.1889 27.8713C32.6014 28.8704 31.8259 30.0809 31.7937 30.132C31.6938 30.2895 31.6606 30.4802 31.7013 30.6622C31.742 30.8441 31.8534 31.0025 32.0109 31.1024C32.1684 31.2022 32.3591 31.2355 32.5411 31.1947C32.723 31.154 32.8814 31.0426 32.9813 30.8852C33.0867 30.7211 35.6307 26.8756 41.168 28.2453C41.3483 28.2881 41.5383 28.2581 41.6965 28.1616C41.8548 28.0651 41.9686 27.9101 42.0131 27.7301C42.0576 27.5502 42.0293 27.36 41.9343 27.2008C41.8393 27.0417 41.6853 26.9265 41.5058 26.8803C38.0989 26.0373 35.6463 26.9539 34.1889 27.8713Z" fill="#A55C95"/>
<path d="M47.5314 20.4249C47.7036 20.4964 47.8972 20.4965 48.0696 20.4253C48.2419 20.3541 48.3789 20.2173 48.4504 20.045C48.5219 19.8728 48.522 19.6792 48.4507 19.5068C48.3795 19.3345 48.2427 19.1975 48.0705 19.126C43.0649 17.0486 39.4268 18.6043 37.2564 20.2754C35.8165 21.3952 34.6246 22.8017 33.7562 24.4058C33.7152 24.4885 33.6908 24.5785 33.6845 24.6706C33.6782 24.7627 33.6901 24.8552 33.7196 24.9427C33.749 25.0302 33.7954 25.1111 33.8561 25.1807C33.9168 25.2503 33.9906 25.3072 34.0733 25.3483C34.156 25.3893 34.246 25.4137 34.3381 25.42C34.4302 25.4263 34.5227 25.4144 34.6102 25.3849C34.6977 25.3555 34.7786 25.3091 34.8482 25.2484C34.9177 25.1877 34.9747 25.1139 35.0158 25.0312C35.7906 23.6196 36.8448 22.3805 38.1142 21.3896C40.8433 19.289 44.0117 18.9642 47.5314 20.4249Z" fill="#A55C95"/>
<path d="M39.6303 15.2162C39.5729 15.3936 39.5884 15.5865 39.6732 15.7526C39.7581 15.9186 39.9055 16.0441 40.0829 16.1015C41.0509 16.3867 42.0548 16.5318 43.0639 16.5323C44.2398 16.5323 45.5978 16.3201 46.8157 15.5982C48.4094 14.6539 49.4313 13.045 49.8548 10.8169C49.8724 10.7261 49.8719 10.6326 49.8533 10.542C49.8347 10.4513 49.7984 10.3652 49.7465 10.2886C49.6945 10.212 49.628 10.1464 49.5506 10.0956C49.4733 10.0448 49.3867 10.0097 49.2958 9.99243C49.2048 9.97515 49.1114 9.976 49.0208 9.99491C48.9302 10.0138 48.8442 10.0504 48.7678 10.1027C48.6914 10.1549 48.6261 10.2217 48.5755 10.2992C48.525 10.3767 48.4902 10.4635 48.4733 10.5544C48.129 12.3663 47.3321 13.6552 46.1048 14.3853C43.7703 15.7743 40.5657 14.7799 40.515 14.7637C40.3376 14.7065 40.1449 14.7221 39.979 14.8069C39.8132 14.8917 39.6877 15.0389 39.6303 15.2162Z" fill="#A55C95"/>
<path d="M30.336 33.3836C30.5865 33.3836 30.8313 33.3094 31.0396 33.1702C31.2479 33.0311 31.4102 32.8333 31.5061 32.6019C31.6019 32.3705 31.627 32.1159 31.5782 31.8703C31.5293 31.6246 31.4087 31.399 31.2316 31.2219C31.0545 31.0448 30.8289 30.9241 30.5832 30.8753C30.3376 30.8264 30.083 30.8515 29.8516 30.9473C29.6202 31.0431 29.4224 31.2055 29.2832 31.4137C29.1441 31.622 29.0698 31.8668 29.0698 32.1172C29.0702 32.453 29.2038 32.7748 29.4411 33.0122C29.6785 33.2496 30.0003 33.3831 30.336 33.3836ZM30.336 31.9773C30.3637 31.9773 30.3908 31.9855 30.4139 32.0009C30.4369 32.0163 30.4549 32.0381 30.4655 32.0637C30.4761 32.0893 30.4789 32.1175 30.4735 32.1447C30.4681 32.1718 30.4548 32.1968 30.4352 32.2164C30.4156 32.236 30.3906 32.2493 30.3634 32.2547C30.3363 32.2601 30.3081 32.2573 30.2825 32.2467C30.2569 32.2361 30.235 32.2181 30.2197 32.1951C30.2043 32.1721 30.1961 32.145 30.1961 32.1172C30.1963 32.0802 30.2111 32.0447 30.2373 32.0185C30.2635 31.9923 30.299 31.9775 30.336 31.9773Z" fill="#A55C95"/>
<path d="M40.2993 10.4148C40.5497 10.4148 40.7946 10.3405 41.0028 10.2014C41.2111 10.0623 41.3734 9.86448 41.4692 9.63309C41.5651 9.4017 41.5901 9.14708 41.5413 8.90144C41.4924 8.65579 41.3718 8.43015 41.1947 8.25306C41.0176 8.07596 40.792 7.95535 40.5463 7.90649C40.3007 7.85763 40.0461 7.8827 39.8147 7.97855C39.5833 8.0744 39.3855 8.2367 39.2464 8.44495C39.1072 8.6532 39.033 8.89803 39.033 9.14848C39.0333 9.48422 39.1669 9.8061 39.4043 10.0435C39.6417 10.2809 39.9636 10.4144 40.2993 10.4148ZM40.2993 9.00856C40.327 9.00856 40.3541 9.01678 40.3771 9.03217C40.4001 9.04756 40.4181 9.06944 40.4287 9.09504C40.4393 9.12063 40.442 9.1488 40.4366 9.17596C40.4312 9.20313 40.4179 9.22809 40.3983 9.24767C40.3787 9.26725 40.3537 9.28057 40.3265 9.28596C40.2994 9.29135 40.2712 9.28856 40.2456 9.27795C40.22 9.26733 40.1982 9.24936 40.1828 9.22632C40.1674 9.20327 40.1592 9.17619 40.1592 9.14848C40.1594 9.11141 40.1743 9.07591 40.2005 9.04971C40.2267 9.0235 40.2622 9.00872 40.2993 9.00856Z" fill="#A55C95"/>
<path d="M58.1477 9.44916C57.8972 9.44916 57.6524 9.52343 57.4441 9.66258C57.2359 9.80173 57.0736 9.99951 56.9777 10.2309C56.8819 10.4623 56.8568 10.7169 56.9057 10.9626C56.9546 11.2082 57.0752 11.4339 57.2523 11.611C57.4294 11.788 57.6551 11.9086 57.9007 11.9575C58.1464 12.0063 58.401 11.9812 58.6324 11.8854C58.8638 11.7895 59.0615 11.6272 59.2007 11.4189C59.3398 11.2107 59.414 10.9658 59.414 10.7154C59.4136 10.3796 59.2801 10.0578 59.0427 9.82039C58.8053 9.58301 58.4834 9.4495 58.1477 9.44916ZM58.1477 10.8554C58.12 10.8554 58.0929 10.8472 58.0699 10.8318C58.0468 10.8164 58.0289 10.7945 58.0183 10.769C58.0077 10.7434 58.0049 10.7152 58.0103 10.688C58.0157 10.6609 58.0291 10.6359 58.0487 10.6163C58.0682 10.5968 58.0932 10.5834 58.1204 10.578C58.1475 10.5726 58.1757 10.5754 58.2013 10.586C58.2269 10.5966 58.2487 10.6145 58.2641 10.6376C58.2795 10.6606 58.2877 10.6877 58.2877 10.7154C58.2876 10.7525 58.2728 10.788 58.2465 10.8142C58.2203 10.8404 58.1848 10.8553 58.1477 10.8554Z" fill="#A55C95"/>
<path d="M29.8176 26.2532C29.8176 26.0027 29.7433 25.7578 29.6041 25.5496C29.4649 25.3413 29.2671 25.179 29.0357 25.0832C28.8042 24.9873 28.5496 24.9623 28.3039 25.0112C28.0583 25.0601 27.8326 25.1808 27.6556 25.358C27.4785 25.5352 27.3579 25.7609 27.3092 26.0066C27.2604 26.2522 27.2856 26.5069 27.3815 26.7383C27.4775 26.9696 27.6399 27.1674 27.8482 27.3064C28.0566 27.4455 28.3015 27.5196 28.5519 27.5195C28.8876 27.519 29.2093 27.3854 29.4465 27.148C29.6838 26.9106 29.8172 26.5888 29.8176 26.2532ZM28.5519 26.3938C28.5243 26.3938 28.4972 26.3856 28.4742 26.3703C28.4511 26.3549 28.4332 26.3331 28.4225 26.3076C28.4119 26.282 28.4091 26.2539 28.4144 26.2267C28.4198 26.1996 28.433 26.1746 28.4526 26.155C28.4721 26.1354 28.497 26.122 28.5241 26.1165C28.5512 26.111 28.5794 26.1137 28.605 26.1242C28.6306 26.1347 28.6525 26.1526 28.668 26.1755C28.6834 26.1985 28.6917 26.2255 28.6919 26.2532C28.6917 26.2903 28.6768 26.3259 28.6505 26.3522C28.6242 26.3784 28.5885 26.3932 28.5514 26.3932L28.5519 26.3938Z" fill="#A55C95"/>
<path d="M56.0625 27.0483C55.812 27.0483 55.5672 27.1225 55.3589 27.2617C55.1507 27.4008 54.9884 27.5986 54.8925 27.83C54.7967 28.0614 54.7716 28.316 54.8205 28.5617C54.8693 28.8073 54.9899 29.0329 55.167 29.21C55.3441 29.3871 55.5698 29.5077 55.8154 29.5566C56.0611 29.6055 56.3157 29.5804 56.5471 29.4845C56.7785 29.3887 56.9762 29.2264 57.1154 29.0181C57.2545 28.8099 57.3288 28.5651 57.3288 28.3146C57.3284 27.9789 57.1949 27.657 56.9575 27.4196C56.7201 27.1822 56.3982 27.0487 56.0625 27.0483ZM56.0625 28.4545C56.0348 28.4545 56.0078 28.4463 55.9848 28.4309C55.9618 28.4155 55.9439 28.3936 55.9333 28.3681C55.9227 28.3425 55.92 28.3144 55.9254 28.2872C55.9308 28.2601 55.9441 28.2352 55.9637 28.2156C55.9833 28.1961 56.0082 28.1828 56.0353 28.1774C56.0625 28.172 56.0906 28.1748 56.1162 28.1853C56.1417 28.1959 56.1636 28.2139 56.1789 28.2369C56.1943 28.2599 56.2025 28.2869 56.2025 28.3146C56.2023 28.3517 56.1875 28.3872 56.1613 28.4134C56.135 28.4396 56.0995 28.4544 56.0625 28.4545Z" fill="#A55C95"/>
</svg>
