<svg width="45" height="45" viewBox="0 0 45 45" fill="none" xmlns="http://www.w3.org/2000/svg">
<path d="M40.8876 41.6412L37.8055 13.5163C37.6369 11.9776 36.3424 10.8173 34.7946 10.8173H32.4518V9.95194C32.4519 4.4644 27.9874 0 22.4999 0C17.0125 0 12.548 4.4644 12.548 9.95194V10.8173H10.2052C8.65734 10.8173 7.36289 11.9776 7.19431 13.5163L4.11217 41.6413C4.01865 42.4957 4.29401 43.3529 4.86767 43.993C5.44134 44.633 6.26346 45 7.12303 45H37.8768C38.0331 45 38.1882 44.9875 38.3407 44.9638C38.3455 44.963 38.3503 44.9626 38.355 44.9619C38.3811 44.9577 38.4069 44.9522 38.4328 44.9473C38.4589 44.9423 38.4852 44.9382 38.5112 44.9326C38.5292 44.9287 38.5469 44.9238 38.5648 44.9196C38.5983 44.9117 38.6319 44.9043 38.6651 44.8952C39.0045 44.8036 39.3254 44.6527 39.6137 44.4509C39.6285 44.4406 39.6438 44.4308 39.6585 44.4201C39.8297 44.2956 39.9886 44.1527 40.1321 43.9927C40.706 43.3528 40.9812 42.4956 40.8876 41.6412ZM15.1441 9.95194C15.1441 5.89597 18.4439 2.5962 22.4998 2.5962C26.5558 2.5962 29.8556 5.89597 29.8556 9.95194V10.8173H15.1441V9.95194ZM9.77513 13.799C9.79922 13.5792 9.98414 13.4135 10.2052 13.4135H12.548V17.3078C12.548 18.0247 13.1292 18.6058 13.8461 18.6058C14.5629 18.6058 15.1441 18.0246 15.1441 17.3078V13.4135H29.8557V17.3078C29.8557 18.0247 30.4369 18.6058 31.1537 18.6058C31.8706 18.6058 32.4518 18.0246 32.4518 17.3078V13.4135H34.7946C35.0157 13.4135 35.2006 13.5794 35.2247 13.7991L37.5533 35.0481H7.44647L9.77513 13.799ZM38.1991 42.2599C38.1509 42.3136 38.045 42.4038 37.8768 42.4038H7.12303C6.95499 42.4038 6.84908 42.3136 6.80083 42.2599C6.75266 42.2062 6.67453 42.0911 6.6929 41.924L7.16206 37.6443H37.8379L38.307 41.924C38.3253 42.0911 38.2472 42.2063 38.1991 42.2599Z" fill="#606060"/>
</svg>
