<svg width="75" height="76" viewBox="0 0 75 76" fill="none" xmlns="http://www.w3.org/2000/svg">
<path d="M69.2748 33.2735H65.626C65.4182 32.5211 64.971 31.8568 64.3521 31.3811C63.7333 30.9054 62.9763 30.6441 62.1958 30.6368H58.3008V21.1118C58.3052 20.9336 58.2621 20.7574 58.176 20.6014C58.0898 20.4454 57.9638 20.315 57.8106 20.2238L30.3335 4.35337C30.1787 4.26336 30.0028 4.21594 29.8236 4.21594C29.6445 4.21594 29.4686 4.26336 29.3137 4.35337L1.82813 20.2238C1.67261 20.3139 1.5436 20.4435 1.45411 20.5994C1.36461 20.7553 1.31779 20.932 1.31836 21.1118V52.8527C1.31837 53.0327 1.36575 53.2095 1.45575 53.3654C1.54574 53.5213 1.67518 53.6507 1.83106 53.7407L29.3194 69.6111C29.4753 69.7011 29.6521 69.7485 29.8321 69.7485C30.0168 69.7486 30.1984 69.7013 30.3595 69.6111L44.8242 61.2678V67.2992C44.8227 67.8734 44.9352 68.4422 45.155 68.9727C45.3748 69.5032 45.6977 69.9848 46.1049 70.3897C46.5121 70.7945 46.9956 71.1146 47.5274 71.3314C48.0591 71.5481 48.6286 71.6572 49.2028 71.6524H69.2748C69.8505 71.6577 70.4216 71.5492 70.9552 71.333C71.4887 71.1168 71.9743 70.7972 72.3839 70.3926C72.7934 69.988 73.119 69.5064 73.3417 68.9755C73.5644 68.4446 73.68 67.8749 73.6816 67.2992V37.6947C73.681 36.5248 73.2169 35.4028 72.391 34.5743C71.5651 33.7457 70.4447 33.278 69.2748 33.2735ZM62.2323 32.6876C62.627 32.6876 63.0056 32.8444 63.2848 33.1235C63.5639 33.4026 63.7207 33.7812 63.7207 34.176V34.2753C63.7207 34.6701 63.5639 35.0486 63.2848 35.3278C63.0056 35.6069 62.627 35.7637 62.2323 35.7637H56.2736C55.8788 35.7637 55.5002 35.6069 55.2211 35.3278C54.942 35.0486 54.7852 34.6701 54.7852 34.2753V34.176C54.7852 33.7812 54.942 33.4026 55.2211 33.1235C55.5002 32.8444 55.8788 32.6876 56.2736 32.6876H62.2323ZM29.8321 6.42539L41.2541 13.0198L15.8183 27.7052L4.39644 21.1107L29.8321 6.42539ZM28.8574 66.947L3.36915 52.2606V22.8855L28.8574 37.5719V66.947ZM29.8321 35.7959L17.869 28.8891L43.3049 14.2039L55.2686 21.1107L29.8321 35.7959ZM44.8242 37.6947V58.8999L30.9082 66.947V37.5719L56.25 22.8855V30.6368H56.2818C55.5012 30.6441 54.7443 30.9054 54.1254 31.3811C53.5066 31.8568 53.0594 32.5211 52.8516 33.2735H49.2028C48.0359 33.2791 46.919 33.7481 46.0979 34.5773C45.2767 35.4064 44.8186 36.5278 44.8242 37.6947ZM71.6309 67.2992C71.6295 67.6057 71.5672 67.9088 71.4476 68.1911C71.328 68.4733 71.1536 68.7289 70.9344 68.9431C70.7152 69.1574 70.4556 69.3259 70.1707 69.4389C69.8858 69.552 69.5813 69.6073 69.2748 69.6016H49.2028C48.8978 69.6068 48.5949 69.5509 48.3118 69.4373C48.0287 69.3238 47.7712 69.1548 47.5544 68.9403C47.3375 68.7258 47.1657 68.4701 47.049 68.1883C46.9324 67.9065 46.8732 67.6042 46.875 67.2992V37.6947C46.8719 37.3861 46.9297 37.08 47.0451 36.7938C47.1604 36.5075 47.3311 36.2469 47.5473 36.0267C47.7635 35.8066 48.021 35.6312 48.3051 35.5106C48.5892 35.3901 48.8942 35.3268 49.2028 35.3243H52.8916C53.1115 36.0501 53.5607 36.6851 54.1719 37.134C54.7831 37.583 55.5234 37.8217 56.2818 37.8145H62.1958C62.9542 37.8218 63.6944 37.583 64.3056 37.134C64.9168 36.6851 65.366 36.0501 65.5859 35.3243H69.2748C69.9009 35.3282 70.5001 35.5797 70.9415 36.0238C71.3829 36.4679 71.6307 37.0685 71.6309 37.6947V67.2992Z" fill="#A55C95"/>
<path d="M50.3832 48.0684H51.4565C51.7284 48.0684 51.9892 47.9603 52.1815 47.768C52.3738 47.5757 52.4819 47.3149 52.4819 47.043C52.4819 46.771 52.3738 46.5102 52.1815 46.3179C51.9892 46.1256 51.7284 46.0176 51.4565 46.0176H51.416V43.2344H54.2442C54.3086 43.4405 54.4388 43.6199 54.6149 43.745C54.791 43.8701 55.0032 43.9339 55.2191 43.9268C55.4914 43.9275 55.7528 43.8203 55.9461 43.6285C56.1394 43.4367 56.2487 43.176 56.25 42.9038V42.2138C56.2477 41.9402 56.1376 41.6786 55.9435 41.4857C55.7494 41.2928 55.4871 41.1842 55.2135 41.1836H50.3832C50.2487 41.1843 50.1156 41.2115 49.9916 41.2637C49.8676 41.3158 49.7551 41.3919 49.6606 41.4876C49.566 41.5833 49.4913 41.6967 49.4406 41.8213C49.3899 41.9459 49.3643 42.0793 49.3653 42.2138V47.0441C49.3644 47.1783 49.3902 47.3114 49.441 47.4356C49.4918 47.5598 49.5666 47.6728 49.6612 47.768C49.7558 47.8631 49.8683 47.9387 49.9922 47.9902C50.1161 48.0418 50.249 48.0683 50.3832 48.0684Z" fill="#A55C95"/>
<path d="M50.3906 57.4434H55.2246C55.4966 57.4434 55.7574 57.3353 55.9497 57.143C56.142 56.9507 56.25 56.6899 56.25 56.418V51.584C56.25 51.312 56.142 51.0512 55.9497 50.8589C55.7574 50.6666 55.4966 50.5586 55.2246 50.5586H50.3906C50.1187 50.5586 49.8579 50.6666 49.6656 50.8589C49.4733 51.0512 49.3652 51.312 49.3652 51.584V56.418C49.3652 56.6899 49.4733 56.9507 49.6656 57.143C49.8579 57.3353 50.1187 57.4434 50.3906 57.4434ZM51.416 52.6094H54.1992V55.3926H51.416V52.6094Z" fill="#A55C95"/>
<path d="M51.4567 64.7676H51.4161V61.9844H54.1889C54.1942 62.254 54.305 62.5109 54.4974 62.6998C54.6899 62.8887 54.9488 62.9947 55.2185 62.995C55.4882 62.9952 55.7473 62.8898 55.9401 62.7012C56.133 62.5127 56.2442 62.2561 56.2501 61.9864V60.9984C56.249 60.7212 56.1404 60.4552 55.947 60.2565C55.7536 60.0579 55.4907 59.9421 55.2136 59.9336H50.3832C50.1081 59.9428 49.8474 60.0595 49.6572 60.2585C49.4669 60.4575 49.3622 60.7231 49.3653 60.9984V65.8287C49.3652 65.9611 49.3916 66.0922 49.4431 66.2142C49.4945 66.3362 49.57 66.4466 49.6649 66.5389C49.7598 66.6312 49.8723 66.7035 49.9957 66.7515C50.1191 66.7995 50.2509 66.8222 50.3832 66.8184H51.4567C51.7286 66.8184 51.9894 66.7103 52.1817 66.518C52.374 66.3257 52.4821 66.0649 52.4821 65.793C52.4821 65.521 52.374 65.2602 52.1817 65.0679C51.9894 64.8756 51.7286 64.7676 51.4567 64.7676Z" fill="#A55C95"/>
<path d="M57.5744 42.4423L54.5715 45.4452L53.658 44.5316C53.5628 44.4364 53.4497 44.3608 53.3253 44.3093C53.2009 44.2578 53.0676 44.2312 52.9329 44.2312C52.7983 44.2312 52.6649 44.2578 52.5405 44.3093C52.4161 44.3608 52.303 44.4364 52.2078 44.5316C52.1126 44.6268 52.0371 44.7398 51.9855 44.8642C51.934 44.9887 51.9075 45.122 51.9075 45.2567C51.9075 45.3913 51.934 45.5247 51.9855 45.6491C52.0371 45.7735 52.1126 45.8865 52.2078 45.9818L53.8465 47.6203C53.9418 47.7156 54.0548 47.7911 54.1792 47.8426C54.3036 47.8942 54.437 47.9207 54.5716 47.9207C54.7063 47.9207 54.8396 47.8942 54.9641 47.8426C55.0885 47.7911 55.2015 47.7156 55.2967 47.6203L59.0251 43.892C59.2174 43.6997 59.3254 43.4389 59.3254 43.1669C59.3254 42.895 59.2174 42.6341 59.0251 42.4418C58.8327 42.2495 58.5719 42.1415 58.3 42.1415C58.028 42.1415 57.7672 42.2495 57.5749 42.4418L57.5744 42.4423Z" fill="#A55C95"/>
<path d="M57.5744 61.3751L54.5715 64.3781L53.658 63.4644C53.5628 63.3692 53.4497 63.2937 53.3253 63.2421C53.2009 63.1906 53.0676 63.1641 52.9329 63.1641C52.7983 63.1641 52.6649 63.1906 52.5405 63.2421C52.4161 63.2937 52.303 63.3692 52.2078 63.4644C52.1126 63.5597 52.0371 63.6727 51.9855 63.7971C51.934 63.9215 51.9075 64.0549 51.9075 64.1895C51.9075 64.3242 51.934 64.4575 51.9855 64.5819C52.0371 64.7064 52.1126 64.8194 52.2078 64.9146L53.8465 66.5532C53.9418 66.6484 54.0548 66.724 54.1792 66.7755C54.3036 66.827 54.437 66.8536 54.5716 66.8536C54.7063 66.8536 54.8396 66.827 54.9641 66.7755C55.0885 66.724 55.2015 66.6484 55.2967 66.5532L59.0251 62.8249C59.2174 62.6326 59.3254 62.3717 59.3254 62.0998C59.3254 61.8278 59.2174 61.567 59.0251 61.3747C58.8327 61.1824 58.5719 61.0743 58.3 61.0743C58.028 61.0743 57.7672 61.1824 57.5749 61.3747L57.5744 61.3751Z" fill="#A55C95"/>
<path d="M68.0943 43.6738H61.6539C61.382 43.6738 61.1212 43.7819 60.9289 43.9742C60.7366 44.1665 60.6285 44.4273 60.6285 44.6992C60.6285 44.9712 60.7366 45.232 60.9289 45.4243C61.1212 45.6166 61.382 45.7246 61.6539 45.7246H68.0943C68.3662 45.7246 68.627 45.6166 68.8193 45.4243C69.0116 45.232 69.1197 44.9712 69.1197 44.6992C69.1197 44.4273 69.0116 44.1665 68.8193 43.9742C68.627 43.7819 68.3662 43.6738 68.0943 43.6738Z" fill="#A55C95"/>
<path d="M68.0943 53.0488H61.6539C61.382 53.0488 61.1212 53.1569 60.9289 53.3492C60.7366 53.5415 60.6285 53.8023 60.6285 54.0742C60.6285 54.3462 60.7366 54.607 60.9289 54.7993C61.1212 54.9916 61.382 55.0996 61.6539 55.0996H68.0943C68.3662 55.0996 68.627 54.9916 68.8193 54.7993C69.0116 54.607 69.1197 54.3462 69.1197 54.0742C69.1197 53.8023 69.0116 53.5415 68.8193 53.3492C68.627 53.1569 68.3662 53.0488 68.0943 53.0488Z" fill="#A55C95"/>
<path d="M68.0943 62.4238H61.6539C61.382 62.4238 61.1212 62.5319 60.9289 62.7242C60.7366 62.9165 60.6285 63.1773 60.6285 63.4492C60.6285 63.7212 60.7366 63.982 60.9289 64.1743C61.1212 64.3666 61.382 64.4746 61.6539 64.4746H68.0943C68.3662 64.4746 68.627 64.3666 68.8193 64.1743C69.0116 63.982 69.1197 63.7212 69.1197 63.4492C69.1197 63.1773 69.0116 62.9165 68.8193 62.7242C68.627 62.5319 68.3662 62.4238 68.0943 62.4238Z" fill="#A55C95"/>
</svg>
