<svg width="70" height="71" viewBox="0 0 70 71" fill="none" xmlns="http://www.w3.org/2000/svg">
<g clip-path="url(#clip0)">
<path d="M61.3961 53.5078C61.9624 53.5078 62.4215 53.0487 62.4215 52.4824V27.873C62.4215 26.6491 61.9444 25.3972 61.0783 24.3479L53.4736 15.1339C53.0752 14.6511 52.6172 14.2442 52.1198 13.9202C52.1503 13.6068 52.1677 13.2903 52.1677 12.9708V1.48645C52.1677 0.920161 51.7086 0.46106 51.1423 0.46106C50.576 0.46106 50.1169 0.920161 50.1169 1.48645C50.1169 1.48645 50.1149 13.0686 50.114 13.1175C49.8223 13.0658 49.5261 13.0392 49.2282 13.0392H35.9665C35.0329 13.0392 34.1177 13.3011 33.2983 13.7825C33.2629 13.7952 33.2278 13.8095 33.1933 13.8263L23.1977 18.6951C22.0902 19.2506 21.2047 20.1823 20.7039 21.3186C20.6984 21.331 20.6933 21.3435 20.6883 21.3561L16.5556 31.8386C16.3479 32.3655 16.6066 32.9609 17.1335 33.1687C17.257 33.2174 17.3841 33.2403 17.5093 33.2403C17.9181 33.2403 18.3045 32.9941 18.4635 32.5908L22.5882 22.1285C22.8984 21.4355 23.4408 20.8677 24.1064 20.5336L29.3876 17.9612L24.1163 24.348C23.327 25.3042 22.9099 26.5233 22.9099 27.8733V63.2835C22.9099 63.6958 22.9461 64.0995 23.0119 64.493L12.446 59.8112C10.0591 58.7537 8.97741 55.9445 10.0351 53.5492C10.0396 53.5388 10.044 53.5283 10.0483 53.5179L16.7316 36.9088C16.9429 36.3834 16.6885 35.7862 16.1631 35.5747C15.6374 35.3633 15.0405 35.6179 14.829 36.1431L8.15163 52.7368C6.65018 56.1616 8.20112 60.1732 11.6151 61.6859L24.0051 67.176C24.0203 67.1827 24.0357 67.1876 24.0511 67.1935C25.3086 69.1584 27.4827 70.4609 29.9509 70.4609H55.2439C59.1346 70.4609 62.4216 67.1739 62.4216 63.2832V57.2676C62.4216 56.7013 61.9625 56.2422 61.3962 56.2422C60.8299 56.2422 60.3708 56.7013 60.3708 57.2676V63.2832C60.3708 66.0623 58.0229 68.4101 55.2439 68.4101H29.9509C27.1993 68.4101 24.9607 66.1103 24.9607 63.2832V27.873C24.9607 26.9928 25.2087 26.2459 25.698 25.6533L33.3027 16.4392C34.0105 15.5817 34.9815 15.0898 35.9665 15.0898H49.2282C49.4214 15.0898 49.6139 15.1094 49.8041 15.1463C49.1622 17.3353 47.5722 19.1619 45.425 20.0772C44.8635 19.1381 43.837 18.5078 42.6656 18.5078C40.894 18.5078 39.4527 19.9491 39.4527 21.7207C39.4527 23.4923 40.894 24.9336 42.6656 24.9336C44.3039 24.9336 45.6588 23.7006 45.8536 22.114C48.6152 21.0695 50.7034 18.8563 51.6338 16.1549C51.7231 16.2447 51.8095 16.3392 51.8921 16.4392L59.4968 25.6534C60.0603 26.3362 60.3708 27.1245 60.3708 27.8732V52.4825C60.3707 53.0487 60.8298 53.5078 61.3961 53.5078ZM42.6656 22.8828C42.0248 22.8828 41.5035 22.3615 41.5035 21.7207C41.5035 21.0799 42.0248 20.5586 42.6656 20.5586C43.3064 20.5586 43.8277 21.0799 43.8277 21.7207C43.8277 22.3615 43.3064 22.8828 42.6656 22.8828Z" fill="#A55C95"/>
<path d="M33.7789 55.0117C34.0413 55.0117 34.3038 54.9116 34.5039 54.7113L52.0039 37.2113C52.4044 36.8109 52.4044 36.1616 52.0039 35.7613C51.6035 35.3608 50.9542 35.3608 50.5539 35.7613L33.0539 53.2613C32.4001 53.8706 32.9017 55.0427 33.7789 55.0117Z" fill="#A55C95"/>
<path d="M35.9664 44.2109C38.4164 44.2109 40.4097 42.2176 40.4097 39.7676C40.4097 37.3176 38.4164 35.3242 35.9664 35.3242H35.8297C33.3797 35.3242 31.3863 37.3176 31.3863 39.7676C31.3863 42.2176 33.3797 44.2109 35.8297 44.2109H35.9664ZM33.4371 39.7676C33.4371 38.4484 34.5105 37.375 35.8297 37.375H35.9664C37.2856 37.375 38.3589 38.4484 38.3589 39.7676C38.3589 41.0868 37.2856 42.1602 35.9664 42.1602H35.8297C34.5105 42.1602 33.4371 41.0868 33.4371 39.7676Z" fill="#A55C95"/>
<path d="M49.2281 55.0117H49.3648C51.8148 55.0117 53.8082 53.0184 53.8082 50.5684C53.8082 48.1184 51.8148 46.125 49.3648 46.125H49.2281C46.7781 46.125 44.7847 48.1184 44.7847 50.5684C44.7847 53.0184 46.7781 55.0117 49.2281 55.0117ZM49.2281 48.1758H49.3648C50.684 48.1758 51.7574 49.2492 51.7574 50.5684C51.7574 51.8876 50.684 52.9609 49.3648 52.9609H49.2281C47.9089 52.9609 46.8355 51.8876 46.8355 50.5684C46.8355 49.2492 47.9089 48.1758 49.2281 48.1758Z" fill="#A55C95"/>
</g>
<defs>
<clipPath id="clip0">
<rect width="70" height="70" fill="white" transform="translate(0 0.460938)"/>
</clipPath>
</defs>
</svg>
