<svg width="75" height="76" viewBox="0 0 75 76" fill="none" xmlns="http://www.w3.org/2000/svg">
<g clip-path="url(#clip0)">
<path d="M37.5328 10.5448C36.5928 10.5448 35.6463 10.6006 34.7198 10.7106C34.1173 10.782 33.6868 11.3285 33.7584 11.931C33.8301 12.5335 34.3775 12.9655 34.9788 12.8924C35.8198 12.7926 36.6791 12.7421 37.5329 12.7421C49.3626 12.7421 58.9866 22.3774 58.9866 34.2208C58.9866 46.0643 49.3626 55.6996 37.5329 55.6996C33.1101 55.6996 28.8638 54.3634 25.2531 51.8355C21.7223 49.3633 19.0418 45.9375 17.5016 41.9286C17.2841 41.3623 16.6489 41.0792 16.0822 41.297C15.5157 41.5145 15.233 42.1501 15.4505 42.7164C17.1481 47.1354 20.102 50.9111 23.9929 53.6352C27.9748 56.4231 32.6569 57.8968 37.5329 57.8968C50.574 57.8968 61.1838 47.2756 61.1838 34.2206C61.1838 21.1657 50.5738 10.5448 37.5328 10.5448Z" fill="#A55C95"/>
<path d="M16.3046 37.3476C16.155 36.3199 16.079 35.2679 16.079 34.2206C16.079 29.7995 17.4098 25.5536 19.9276 21.9423C22.3894 18.4113 25.802 15.7272 29.7964 14.1806C30.3622 13.9614 30.6432 13.3251 30.4242 12.7594C30.2051 12.1937 29.5689 11.9124 29.003 12.1316C24.5993 13.8368 20.838 16.7947 18.1251 20.6856C15.3491 24.6677 13.8816 29.348 13.8816 34.2206C13.8816 35.3735 13.9651 36.532 14.13 37.6643C14.2097 38.211 14.6792 38.6048 15.2158 38.6048C15.2685 38.6048 15.322 38.601 15.3756 38.5932C15.9762 38.5059 16.392 37.9481 16.3046 37.3476Z" fill="#A55C95"/>
<path d="M53.6632 42.3958C54.2205 42.6367 54.8669 42.3803 55.1076 41.8232C56.1467 39.419 56.6736 36.8612 56.6736 34.2208C56.6736 23.6554 48.087 15.0598 37.5327 15.0598C26.9783 15.0598 18.3918 23.6554 18.3918 34.2208C18.3918 44.7863 26.9785 53.3819 37.5328 53.3819C43.2665 53.3819 48.65 50.8404 52.3028 46.4089C52.6888 45.9408 52.6222 45.2483 52.1539 44.8624C51.6857 44.4762 50.9931 44.543 50.6073 45.0113C47.3732 48.9345 42.6078 51.1846 37.5327 51.1846C28.1899 51.1846 20.589 43.5748 20.589 34.2208C20.589 24.8669 28.1899 17.2571 37.5327 17.2571C46.8754 17.2571 54.4764 24.8669 54.4764 34.2208C54.4764 36.5596 54.0101 38.8241 53.0905 40.9515C52.8498 41.5084 53.1062 42.1552 53.6632 42.3958Z" fill="#A55C95"/>
<path d="M74.6786 58.5929L64.225 48.1277C66.4022 43.9656 67.6343 39.2343 67.6343 34.2207C67.6343 17.6226 54.1306 4.11914 37.5327 4.11914C20.9347 4.11914 7.43108 17.6226 7.43108 34.2207C7.43108 39.217 8.65466 43.9329 10.8179 48.0846L0.321326 58.5929C0.0472543 58.8674 -0.0618764 59.2663 0.0343637 59.6422C0.13075 60.0179 0.418152 60.3153 0.790661 60.424L8.97766 62.815L11.3664 71.0117C11.4749 71.3845 11.7723 71.6723 12.1486 71.7686C12.2388 71.7916 12.3302 71.8028 12.4211 71.8028C12.7089 71.8028 12.9897 71.6896 13.1984 71.4807L23.7106 60.957C27.8521 63.1068 32.5532 64.3223 37.5328 64.3223C42.4953 64.3223 47.181 63.1153 51.312 60.9794L61.8017 71.4807C62.0105 71.6896 62.2913 71.8028 62.5791 71.8028C62.6699 71.8028 62.7613 71.7916 62.8516 71.7686C63.2277 71.6723 63.5252 71.3845 63.6338 71.0117L66.0225 62.815L74.2095 60.424C74.582 60.3153 74.8694 60.0181 74.9658 59.6422C75.0618 59.2662 74.9526 58.8674 74.6786 58.5929ZM3.18568 58.8345L11.9466 50.064C12.9822 51.7303 14.1759 53.2886 15.5066 54.7177L9.54631 60.692L3.18568 58.8345ZM12.9562 68.614L11.1002 62.2455L17.0612 56.2703C18.4947 57.6021 20.0577 58.7961 21.7291 59.8313L12.9562 68.614ZM9.62834 34.2207C9.62834 18.8342 22.1461 6.3164 37.5327 6.3164C52.9192 6.3164 65.437 18.8342 65.437 34.2207C65.437 49.6073 52.9192 62.1251 37.5327 62.1251C22.1461 62.1251 9.62834 49.6073 9.62834 34.2207ZM62.0437 68.614L53.296 59.8563C54.9693 58.8236 56.5344 57.6317 57.9701 56.3019L63.8997 62.2455L62.0437 68.614ZM65.4536 60.692L59.5271 54.7514C60.8598 53.3246 62.0557 51.7685 63.0936 50.1042L71.8141 58.8343L65.4536 60.692Z" fill="#A55C95"/>
<path d="M48.4236 31.3186C48.2944 30.9208 47.9506 30.6309 47.5366 30.5708L41.31 29.6664L38.5207 23.9321C38.3368 23.5541 37.9532 23.314 37.5328 23.314C37.1124 23.314 36.7287 23.5541 36.5449 23.9321L33.7555 29.6664L27.5289 30.5708C27.1151 30.6309 26.7712 30.9209 26.642 31.3185C26.5126 31.7163 26.6206 32.153 26.9201 32.4448L31.4307 36.8392L30.3666 43.0434C30.2959 43.4554 30.4654 43.872 30.8036 44.1178C31.1418 44.3636 31.5902 44.3961 31.9605 44.2015L37.5325 41.2721L43.1045 44.2015C43.2653 44.286 43.4408 44.3276 43.6156 44.3276C43.8433 44.3276 44.0701 44.2568 44.2614 44.1177C44.5998 43.8719 44.7693 43.4554 44.6984 43.0432L43.6343 36.8389L48.1449 32.4446C48.4449 32.153 48.5528 31.7163 48.4236 31.3186ZM41.6877 35.6683C41.4285 35.9207 41.3103 36.2844 41.3716 36.641L42.1569 41.2208L38.044 39.0584C37.8839 38.9743 37.7084 38.9323 37.5328 38.9323C37.3572 38.9323 37.1817 38.9743 37.0216 39.0584L32.9087 41.2208L33.694 36.6411C33.7553 36.2846 33.6369 35.9209 33.3779 35.6685L30.0486 32.425L34.6471 31.757C35.0071 31.7049 35.3179 31.4777 35.477 31.1503L37.5328 26.9239L39.5886 31.1503C39.7476 31.4775 40.0585 31.7047 40.4185 31.757L45.0168 32.425L41.6877 35.6683Z" fill="#A55C95"/>
</g>
<defs>
<clipPath id="clip0">
<rect width="75" height="75" fill="white" transform="translate(0 0.460938)"/>
</clipPath>
</defs>
</svg>
