<svg width="75" height="76" viewBox="0 0 75 76" fill="none" xmlns="http://www.w3.org/2000/svg">
<path d="M51.6713 43.1577H13.0048L46.4882 21.8685C46.5856 21.8066 46.6699 21.7261 46.7362 21.6316C46.8025 21.537 46.8496 21.4304 46.8746 21.3177C46.8997 21.205 46.9024 21.0885 46.8824 20.9748C46.8624 20.8611 46.8203 20.7524 46.7583 20.655L43.4409 15.4375C42.6843 14.2505 41.4878 13.412 40.1138 13.1061C38.7398 12.8002 37.3006 13.0518 36.1118 13.8057L31.4002 16.8015L31.7734 15.0157C31.9205 14.37 31.9386 13.7017 31.8267 13.049C31.7147 12.3964 31.4749 11.7723 31.121 11.2126C30.7671 10.6529 30.3061 10.1686 29.7645 9.78766C29.2229 9.40668 28.6113 9.13647 27.9649 8.99257C27.3186 8.84866 26.6501 8.83389 25.998 8.9491C25.3459 9.06431 24.723 9.30724 24.1651 9.66392C23.6072 10.0206 23.1253 10.484 22.747 11.0275C22.3687 11.571 22.1016 12.1839 21.9609 12.831L19.5131 23.8252L11.3172 22.0009C10.0949 21.7285 8.81497 21.9221 7.72797 22.5439C6.64097 23.1656 5.82519 24.1707 5.44035 25.3624C5.05551 26.554 5.12932 27.8464 5.64734 28.9865C6.16536 30.1266 7.09027 31.0323 8.24099 31.5262L3.19343 34.7357C2.00642 35.4922 1.16798 36.6887 0.862053 38.0627C0.55613 39.4367 0.807709 40.8759 1.5616 42.0646L4.87903 47.2822C4.94094 47.3796 5.02144 47.4639 5.11593 47.5302C5.21042 47.5965 5.31704 47.6436 5.42971 47.6687C5.54238 47.6938 5.6589 47.6964 5.77259 47.6765C5.88629 47.6566 5.99495 47.6144 6.09236 47.5525L9.18025 45.5896V67.8388C9.18184 69.2465 9.74175 70.596 10.7371 71.5913C11.7325 72.5867 13.0821 73.1465 14.4897 73.148H47.2413C48.6489 73.1464 49.9984 72.5865 50.9937 71.5912C51.989 70.5959 52.5489 69.2464 52.5505 67.8388V44.0366C52.5505 43.9211 52.5277 43.8068 52.4835 43.7002C52.4393 43.5935 52.3746 43.4966 52.2929 43.415C52.2113 43.3334 52.1144 43.2686 52.0077 43.2245C51.901 43.1803 51.7867 43.1576 51.6713 43.1577ZM37.0551 15.2893C37.622 14.9268 38.2807 14.7339 38.9536 14.7335C39.2156 14.7337 39.4767 14.7625 39.7323 14.8195C40.188 14.9197 40.6193 15.1093 41.0013 15.3773C41.3832 15.6453 41.7082 15.9863 41.9574 16.3808L44.8033 20.8566L30.9606 29.6582L26.2092 22.1855L37.0551 15.2893ZM23.6766 13.2132C23.8665 12.3673 24.3846 11.6315 25.117 11.1677C25.8494 10.7038 26.736 10.5499 27.5819 10.7398C28.4278 10.9297 29.1636 11.4478 29.6274 12.1802C30.0913 12.9126 30.2452 13.7992 30.0553 14.6451L29.3337 18.0968L21.4723 23.1138L23.6766 13.2132ZM24.7255 23.1287L29.4768 30.6015L21.4553 35.7015L16.7041 28.2287L24.7255 23.1287ZM7.46653 28.6611C7.11963 28.1156 6.9423 27.4794 6.95696 26.8331C6.97162 26.1868 7.17762 25.5593 7.5489 25.0301C7.92017 24.5008 8.44006 24.0935 9.04281 23.8598C9.64555 23.626 10.3041 23.5762 10.9351 23.7167L18.0374 25.2978L10.1533 30.2401L9.51438 30.0977C9.09501 30.0055 8.69808 29.8311 8.34657 29.5845C7.99506 29.3379 7.69594 29.0241 7.46653 28.6611ZM5.89109 45.5975L3.04534 41.1215C2.54105 40.3264 2.37274 39.3637 2.57733 38.4447C2.78192 37.5256 3.34269 36.7253 4.13665 36.2191L15.2207 29.1719L19.9719 36.6447L5.89109 45.5975ZM22.935 71.3902H14.4897C13.5482 71.3891 12.6455 71.0146 11.9797 70.3488C11.3139 69.683 10.9394 68.7804 10.9384 67.8388V44.9155H22.9354L22.935 71.3902ZM34.1065 71.3902H24.6928V44.9155H34.1065V71.3902ZM50.7924 67.8388C50.7913 68.7803 50.4168 69.6829 49.7511 70.3487C49.0854 71.0145 48.1828 71.389 47.2413 71.3902H35.8643V44.9155H50.7924V67.8388Z" fill="#A55C95"/>
<path d="M61.499 35.1735L61.9194 32.7221C61.9471 32.5605 61.929 32.3944 61.8673 32.2425C61.8055 32.0907 61.7025 31.9591 61.5699 31.8628C61.4372 31.7664 61.2803 31.709 61.1168 31.6971C60.9533 31.6853 60.7897 31.7194 60.6446 31.7956L58.4432 32.9528L56.2417 31.7956C56.0965 31.7192 55.9329 31.685 55.7693 31.6969C55.6058 31.7087 55.4488 31.766 55.3161 31.8624C55.1834 31.9588 55.0803 32.0904 55.0185 32.2423C54.9567 32.3943 54.9387 32.5604 54.9664 32.7221L55.3868 35.1735L53.6059 36.9093C53.4884 37.0238 53.4053 37.1689 53.366 37.3281C53.3266 37.4873 53.3327 37.6544 53.3833 37.8104C53.434 37.9664 53.5273 38.1051 53.6527 38.2108C53.7781 38.3165 53.9306 38.385 54.0929 38.4086L56.5539 38.7663L57.6546 40.9965C57.7271 41.1436 57.8394 41.2675 57.9787 41.3541C58.118 41.4407 58.2788 41.4866 58.4428 41.4866C58.6068 41.4866 58.7676 41.4407 58.9069 41.3541C59.0462 41.2675 59.1585 41.1436 59.231 40.9965L60.3316 38.7663L62.7925 38.4086C62.9548 38.385 63.1073 38.3165 63.2327 38.2108C63.3581 38.1051 63.4514 37.9664 63.5021 37.8104C63.5528 37.6544 63.5588 37.4873 63.5195 37.3281C63.4801 37.1689 63.397 37.0238 63.2796 36.9093L61.499 35.1735ZM59.6215 37.0924C59.4805 37.1129 59.3466 37.1674 59.2313 37.2511C59.116 37.3349 59.0228 37.4454 58.9597 37.5732L58.4428 38.6209L57.9257 37.5732C57.8626 37.4454 57.7695 37.3349 57.6542 37.2512C57.5389 37.1674 57.405 37.1129 57.264 37.0924L56.1077 36.9244L56.9444 36.1089C57.0465 36.0095 57.1228 35.8867 57.1668 35.7512C57.2109 35.6156 57.2213 35.4714 57.1972 35.331L56.9996 34.1793L58.0338 34.7229C58.1599 34.7893 58.3003 34.824 58.4428 34.824C58.5853 34.824 58.7257 34.7893 58.8518 34.7229L59.8858 34.1793L59.6883 35.331C59.6642 35.4714 59.6746 35.6156 59.7187 35.7511C59.7627 35.8867 59.839 36.0095 59.941 36.1089L60.7777 36.9244L59.6215 37.0924Z" fill="#A55C95"/>
<path d="M71.6076 23.0635L69.1906 22.4761L68.3043 20.1525C68.2458 19.9992 68.1457 19.8653 68.0152 19.766C67.8846 19.6667 67.7289 19.6059 67.5656 19.5904C67.4023 19.575 67.238 19.6056 67.0912 19.6787C66.9443 19.7518 66.8209 19.8646 66.7348 20.0042L65.4295 22.1213L62.9456 22.2463C62.7818 22.2545 62.6236 22.3084 62.4888 22.4019C62.3541 22.4954 62.2482 22.6247 62.1831 22.7752C62.118 22.9257 62.0963 23.0914 62.1204 23.2536C62.1446 23.4158 62.2136 23.568 62.3198 23.693L63.9298 25.5886L63.2813 27.9895C63.2385 28.1478 63.2409 28.315 63.2881 28.472C63.3354 28.6291 63.4256 28.7698 63.5487 28.8782C63.6717 28.9866 63.8226 29.0585 63.9843 29.0856C64.1461 29.1127 64.3122 29.0941 64.4639 29.0317L66.7637 28.0863L68.8477 29.4453C68.9851 29.5349 69.1447 29.5843 69.3087 29.5878C69.4726 29.5914 69.6343 29.5491 69.7754 29.4656C69.9166 29.3821 70.0315 29.2608 70.1073 29.1153C70.1831 28.9699 70.2167 28.8062 70.2043 28.6427L70.0161 26.1627L71.9516 24.6016C72.0792 24.4987 72.1755 24.3621 72.2295 24.2073C72.2836 24.0525 72.2933 23.8857 72.2575 23.7257C72.2217 23.5657 72.1419 23.4189 72.0271 23.3019C71.9122 23.1849 71.7669 23.1023 71.6076 23.0635ZM68.5526 25.085C68.4416 25.1745 68.3541 25.2895 68.2976 25.4203C68.241 25.5511 68.2171 25.6937 68.2279 25.8358L68.3158 27.0007L67.3372 26.3622C67.2178 26.2844 67.0813 26.2367 66.9395 26.2233C66.7976 26.21 66.6547 26.2313 66.5229 26.2855L65.4424 26.7296L65.7471 25.6017C65.7843 25.4641 65.7874 25.3196 65.7563 25.1805C65.7252 25.0415 65.6608 24.9121 65.5685 24.8035L64.8122 23.913L65.9791 23.8544C66.1214 23.8473 66.2599 23.8057 66.3826 23.7332C66.5052 23.6606 66.6084 23.5594 66.6833 23.4381L67.2963 22.4436L67.7126 23.5352C67.7634 23.6683 67.8458 23.7871 67.9527 23.8813C68.0596 23.9755 68.1878 24.0423 68.3262 24.0759L69.4616 24.3519L68.5526 25.085Z" fill="#A55C95"/>
<path d="M58.6816 8.77583L58.0328 11.1767C57.99 11.335 57.9924 11.5022 58.0396 11.6593C58.0868 11.8163 58.177 11.9571 58.3001 12.0655C58.4231 12.174 58.5741 12.2458 58.7358 12.273C58.8976 12.3001 59.0637 12.2814 59.2154 12.2191L61.5152 11.2735L63.5984 12.6328C63.7357 12.7224 63.8954 12.7718 64.0594 12.7753C64.2233 12.7789 64.385 12.7366 64.5262 12.653C64.6673 12.5695 64.7823 12.4482 64.858 12.3027C64.9338 12.1573 64.9674 11.9936 64.955 11.83L64.7667 9.35005L66.7027 7.78882C66.8303 7.68588 66.9266 7.54931 66.9806 7.39452C67.0347 7.23973 67.0444 7.07291 67.0086 6.91291C66.9728 6.7529 66.893 6.6061 66.7782 6.48908C66.6633 6.37207 66.518 6.28951 66.3587 6.25073L63.9417 5.66348L63.0555 3.33965C62.9971 3.1864 62.8969 3.05256 62.7663 2.95327C62.6358 2.85398 62.4801 2.7932 62.3168 2.77781C62.1535 2.76241 61.9891 2.79302 61.8423 2.86616C61.6955 2.93931 61.5721 3.05207 61.4861 3.1917L60.1809 5.30869L57.6968 5.4335C57.533 5.44171 57.3748 5.49559 57.24 5.58904C57.1053 5.68249 56.9993 5.81178 56.9342 5.96229C56.8691 6.11281 56.8474 6.27854 56.8715 6.44074C56.8957 6.60295 56.9647 6.75517 57.0709 6.88018L58.6816 8.77583ZM60.7311 7.04087C60.8734 7.03372 61.0118 6.99208 61.1345 6.91953C61.2571 6.84698 61.3603 6.7457 61.4351 6.62441L62.0483 5.62993L62.4646 6.72153C62.5154 6.85467 62.5977 6.97346 62.7046 7.06767C62.8115 7.16189 62.9397 7.2287 63.0782 7.26235L64.2135 7.53818L63.3041 8.27148C63.1932 8.36092 63.1056 8.47599 63.0491 8.60677C62.9925 8.73755 62.9685 8.88013 62.9793 9.02222L63.0672 10.1874L62.0886 9.54883C61.9692 9.47099 61.8327 9.42333 61.6909 9.40995C61.549 9.39658 61.406 9.4179 61.2743 9.47207L60.1938 9.91621L60.4985 8.78828C60.5357 8.65071 60.5388 8.50615 60.5077 8.36707C60.4766 8.22799 60.4122 8.09856 60.3199 7.98994L59.5636 7.09932L60.7311 7.04087Z" fill="#A55C95"/>
<path d="M42.7363 35.3001C40.752 36.5489 39.7826 38.0621 39.7423 38.126C39.6174 38.3228 39.5759 38.5612 39.6268 38.7887C39.6777 39.0162 39.8169 39.2141 40.0138 39.3389C40.2106 39.4638 40.449 39.5053 40.6765 39.4544C40.904 39.4035 41.1019 39.2643 41.2268 39.0674C41.3586 38.8624 44.5386 34.0555 51.4601 35.7676C51.6856 35.8212 51.923 35.7836 52.1208 35.663C52.3187 35.5424 52.4609 35.3486 52.5166 35.1237C52.5722 34.8988 52.5368 34.661 52.4181 34.462C52.2993 34.2631 52.1068 34.1191 51.8825 34.0613C47.6239 33.0077 44.5581 34.1533 42.7363 35.3001Z" fill="#A55C95"/>
<path d="M59.4141 25.9921C59.6294 26.0814 59.8713 26.0816 60.0868 25.9925C60.3022 25.9035 60.4734 25.7325 60.5628 25.5172C60.6521 25.3019 60.6523 25.0599 60.5632 24.8445C60.4742 24.629 60.3032 24.4578 60.0879 24.3685C53.8309 21.7717 49.2833 23.7163 46.5703 25.8052C44.7704 27.2049 43.2806 28.963 42.1951 30.9682C42.1438 31.0715 42.1133 31.184 42.1054 31.2992C42.0976 31.4143 42.1125 31.5299 42.1493 31.6393C42.1861 31.7487 42.2441 31.8498 42.3199 31.9368C42.3958 32.0237 42.488 32.0949 42.5914 32.1463C42.6948 32.1976 42.8073 32.2281 42.9224 32.2359C43.0376 32.2438 43.1531 32.2289 43.2625 32.1921C43.3719 32.1553 43.473 32.0973 43.56 32.0214C43.647 31.9456 43.7182 31.8533 43.7695 31.75C44.7381 29.9854 46.0559 28.4366 47.6426 27.1979C51.0539 24.5722 55.0144 24.1662 59.4141 25.9921Z" fill="#A55C95"/>
<path d="M49.5378 19.4811C49.466 19.7029 49.4853 19.9441 49.5914 20.1516C49.6975 20.3592 49.8817 20.5161 50.1035 20.5878C51.3135 20.9444 52.5683 21.1257 53.8298 21.1263C55.2996 21.1263 56.9972 20.861 58.5195 19.9587C60.5116 18.7783 61.789 16.7672 62.3184 13.9821C62.3404 13.8685 62.3397 13.7517 62.3165 13.6384C62.2933 13.5251 62.2479 13.4175 62.183 13.3217C62.118 13.226 62.0349 13.144 61.9382 13.0804C61.8415 13.0169 61.7332 12.9731 61.6196 12.9515C61.5059 12.9299 61.3891 12.9309 61.2759 12.9546C61.1626 12.9782 61.0552 13.024 60.9597 13.0893C60.8641 13.1545 60.7824 13.238 60.7193 13.3349C60.6561 13.4318 60.6127 13.5403 60.5915 13.654C60.1611 15.9188 59.165 17.53 57.6309 18.4426C54.7128 20.1789 50.707 18.9358 50.6436 18.9156C50.4219 18.8441 50.181 18.8635 49.9737 18.9696C49.7663 19.0756 49.6096 19.2596 49.5378 19.4811Z" fill="#A55C95"/>
<path d="M37.9199 42.1904C38.233 42.1904 38.5391 42.0976 38.7994 41.9237C39.0597 41.7497 39.2626 41.5025 39.3825 41.2133C39.5023 40.9241 39.5337 40.6058 39.4726 40.2987C39.4115 39.9917 39.2608 39.7096 39.0394 39.4882C38.818 39.2668 38.536 39.1161 38.2289 39.055C37.9219 38.9939 37.6036 39.0252 37.3144 39.145C37.0251 39.2648 36.7779 39.4677 36.6039 39.728C36.43 39.9883 36.3372 40.2944 36.3372 40.6074C36.3377 41.0271 36.5046 41.4294 36.8013 41.7261C37.098 42.0229 37.5003 42.1898 37.9199 42.1904ZM37.9199 40.4325C37.9546 40.4325 37.9884 40.4428 38.0172 40.462C38.046 40.4812 38.0685 40.5085 38.0818 40.5405C38.095 40.5725 38.0985 40.6077 38.0918 40.6417C38.085 40.6757 38.0683 40.7069 38.0439 40.7314C38.0194 40.7559 37.9882 40.7725 37.9542 40.7793C37.9202 40.786 37.885 40.7826 37.853 40.7693C37.821 40.756 37.7937 40.7336 37.7745 40.7048C37.7552 40.6759 37.745 40.6421 37.745 40.6074C37.7453 40.5611 37.7638 40.5168 37.7965 40.484C37.8293 40.4513 37.8736 40.4328 37.9199 40.4325Z" fill="#A55C95"/>
<path d="M50.374 13.4794C50.6871 13.4794 50.9932 13.3866 51.2535 13.2126C51.5138 13.0387 51.7167 12.7915 51.8365 12.5023C51.9563 12.213 51.9876 11.8948 51.9265 11.5877C51.8655 11.2806 51.7147 10.9986 51.4933 10.7772C51.272 10.5558 50.9899 10.4051 50.6829 10.344C50.3758 10.2829 50.0575 10.3143 49.7683 10.4341C49.4791 10.5539 49.2318 10.7568 49.0579 11.0171C48.884 11.2774 48.7911 11.5834 48.7911 11.8965C48.7916 12.3162 48.9585 12.7185 49.2553 13.0153C49.552 13.312 49.9544 13.479 50.374 13.4794ZM50.374 11.7216C50.4087 11.7216 50.4425 11.7319 50.4713 11.7511C50.5001 11.7704 50.5225 11.7977 50.5358 11.8297C50.549 11.8617 50.5525 11.8969 50.5457 11.9309C50.539 11.9648 50.5223 11.996 50.4978 12.0205C50.4733 12.045 50.4421 12.0616 50.4081 12.0684C50.3741 12.0751 50.3389 12.0716 50.307 12.0583C50.275 12.0451 50.2476 12.0226 50.2284 11.9938C50.2092 11.965 50.199 11.9311 50.199 11.8965C50.1992 11.8502 50.2178 11.8058 50.2505 11.773C50.2833 11.7403 50.3277 11.7218 50.374 11.7216Z" fill="#A55C95"/>
<path d="M72.6847 12.2723C72.3716 12.2723 72.0656 12.3652 71.8053 12.5391C71.545 12.7131 71.3421 12.9603 71.2223 13.2495C71.1025 13.5388 71.0711 13.8571 71.1322 14.1641C71.1933 14.4712 71.3441 14.7532 71.5655 14.9746C71.7869 15.196 72.0689 15.3467 72.376 15.4078C72.6831 15.4688 73.0013 15.4375 73.2906 15.3176C73.5798 15.1978 73.827 14.9949 74.0009 14.7346C74.1749 14.4742 74.2677 14.1682 74.2676 13.8551C74.2672 13.4354 74.1002 13.0331 73.8035 12.7364C73.5067 12.4397 73.1044 12.2728 72.6847 12.2723ZM72.6847 14.0302C72.6501 14.0302 72.6163 14.0199 72.5875 14.0006C72.5587 13.9814 72.5362 13.9541 72.523 13.9221C72.5098 13.8901 72.5063 13.8549 72.513 13.821C72.5198 13.787 72.5365 13.7558 72.5609 13.7313C72.5854 13.7068 72.6166 13.6902 72.6506 13.6834C72.6845 13.6767 72.7197 13.6801 72.7517 13.6934C72.7837 13.7066 72.811 13.7291 72.8303 13.7578C72.8495 13.7866 72.8598 13.8205 72.8598 13.8551C72.8596 13.9015 72.8411 13.9459 72.8083 13.9787C72.7755 14.0115 72.7311 14.03 72.6847 14.0302Z" fill="#A55C95"/>
<path d="M37.272 33.2775C37.272 32.9644 37.1792 32.6583 37.0052 32.398C36.8312 32.1377 36.584 31.9348 36.2947 31.815C36.0054 31.6952 35.6871 31.6639 35.38 31.7251C35.0729 31.7862 34.7909 31.9371 34.5695 32.1585C34.3482 32.38 34.1975 32.6621 34.1365 32.9692C34.0755 33.2763 34.107 33.5946 34.2269 33.8839C34.3469 34.1731 34.5499 34.4202 34.8103 34.5941C35.0708 34.7679 35.3769 34.8606 35.69 34.8604C36.1095 34.8597 36.5117 34.6927 36.8082 34.396C37.1048 34.0993 37.2716 33.697 37.272 33.2775ZM35.69 33.4533C35.6554 33.4533 35.6216 33.4431 35.5928 33.4239C35.564 33.4047 35.5415 33.3774 35.5282 33.3455C35.5149 33.3135 35.5114 33.2784 35.5181 33.2444C35.5248 33.2105 35.5414 33.1793 35.5658 33.1548C35.5902 33.1302 35.6213 33.1135 35.6552 33.1066C35.6891 33.0998 35.7243 33.1031 35.7563 33.1163C35.7883 33.1294 35.8157 33.1517 35.835 33.1804C35.8544 33.2091 35.8647 33.2429 35.8649 33.2775C35.8647 33.324 35.8461 33.3685 35.8132 33.4013C35.7803 33.4341 35.7357 33.4525 35.6893 33.4525L35.69 33.4533Z" fill="#A55C95"/>
<path d="M70.0781 34.2712C69.7651 34.2712 69.459 34.3641 69.1987 34.538C68.9384 34.7119 68.7355 34.9592 68.6157 35.2484C68.4959 35.5376 68.4646 35.8559 68.5257 36.163C68.5867 36.47 68.7375 36.7521 68.9589 36.9734C69.1802 37.1948 69.4623 37.3456 69.7693 37.4066C70.0764 37.4677 70.3947 37.4364 70.6839 37.3166C70.9731 37.1968 71.2203 36.9939 71.3943 36.7336C71.5682 36.4733 71.661 36.1672 71.661 35.8541C71.6606 35.4345 71.4937 35.0321 71.1969 34.7354C70.9002 34.4386 70.4978 34.2717 70.0781 34.2712ZM70.0781 36.0291C70.0436 36.029 70.0098 36.0187 69.981 35.9995C69.9523 35.9803 69.9299 35.9529 69.9167 35.921C69.9034 35.889 69.9 35.8539 69.9068 35.8199C69.9135 35.786 69.9302 35.7549 69.9547 35.7304C69.9791 35.706 70.0103 35.6893 70.0442 35.6826C70.0781 35.6759 70.1133 35.6793 70.1453 35.6926C70.1772 35.7058 70.2045 35.7282 70.2237 35.757C70.2429 35.7858 70.2532 35.8196 70.2532 35.8541C70.253 35.9005 70.2344 35.9449 70.2017 35.9776C70.1689 36.0104 70.1245 36.0289 70.0781 36.0291Z" fill="#A55C95"/>
</svg>
