<svg width="70" height="71" viewBox="0 0 70 71" fill="none" xmlns="http://www.w3.org/2000/svg">
<g clip-path="url(#clip0)">
<path d="M16.3917 28.7056C15.8548 28.5412 15.2874 28.8438 15.1235 29.3801C14.5237 31.3433 14.2195 33.3892 14.2195 35.4607C14.2195 46.9191 23.5415 56.2411 34.9999 56.2411C46.4583 56.2411 55.7803 46.9192 55.7803 35.4608C55.7803 24.0025 46.4583 14.6804 34.9999 14.6804C31.3509 14.6804 27.7612 15.6399 24.619 17.4553C21.5715 19.2159 19.0008 21.7407 17.1849 24.7569C16.8956 25.2374 17.0507 25.8616 17.5311 26.1509C18.0118 26.4401 18.6356 26.2851 18.9251 25.8047C22.353 20.111 28.3622 16.7119 34.9998 16.7119C45.338 16.7119 53.7488 25.1227 53.7488 35.461C53.7488 45.7994 45.338 54.21 34.9998 54.21C24.6615 54.21 16.2508 45.7991 16.2508 35.4608C16.2508 33.5907 16.5252 31.7444 17.0662 29.9738C17.2302 29.4373 16.9282 28.8695 16.3917 28.7056Z" fill="#A55C95"/>
<path d="M7.156 43.2539C6.45135 40.7302 6.0941 38.1084 6.0941 35.4609C6.0941 19.5223 19.0612 6.55504 35 6.55504C42.0185 6.55504 48.6212 9.01693 53.8476 13.5366H51.612C50.6786 13.5366 49.9192 14.2959 49.9192 15.2294V17.938C49.9192 18.8713 50.6785 19.6308 51.612 19.6308H62.491C63.499 19.6308 64.3192 18.8106 64.3192 17.8026V6.92336C64.3192 5.98998 63.5599 5.23051 62.6263 5.23051H59.9178C58.9844 5.23051 58.225 5.98984 58.225 6.92336V9.27027C57.1572 8.31994 56.0325 7.43551 54.8637 6.6275C54.4022 6.30854 53.7696 6.42406 53.4506 6.88535C53.1316 7.34678 53.247 7.97951 53.7085 8.29848C55.4269 9.48643 57.0441 10.8501 58.5152 12.3515C58.8041 12.6463 59.2426 12.7369 59.6245 12.5811C60.0067 12.4251 60.2563 12.0533 60.2563 11.6407V7.26201H62.2877V17.5993H51.9504V15.5679H56.4043C56.8127 15.5679 57.1813 15.3234 57.3401 14.9471C57.4988 14.5709 57.4168 14.1361 57.1318 13.8435C51.2775 7.8335 43.4174 4.52367 35 4.52367C17.9412 4.52367 4.06273 18.4021 4.06273 35.4609C4.06273 38.1803 4.41533 40.8754 5.11109 43.477L3.16613 44.067C2.41309 41.2738 2.03123 38.3802 2.03123 35.4609C2.03123 26.6547 5.46055 18.3756 11.6875 12.1486C17.9145 5.92162 26.1937 2.4923 35 2.4923C40.1978 2.4923 45.3655 3.72359 49.9445 6.05314C50.4443 6.30771 51.056 6.10852 51.3103 5.6084C51.5647 5.10842 51.3655 4.49687 50.8655 4.24258C46.0026 1.76865 40.5163 0.460938 35 0.460938C25.651 0.460938 16.8619 4.10162 10.2513 10.7122C3.64068 17.3229 0 26.1121 0 35.4609C0 38.6813 0.43791 41.8729 1.30143 44.9469C1.42584 45.3897 1.71623 45.7552 2.11941 45.9761C2.52273 46.1973 2.98758 46.2442 3.42412 46.1116L6.01658 45.3253C6.88967 45.0604 7.40086 44.1312 7.156 43.2539Z" fill="#A55C95"/>
<path d="M68.6202 25.7011C68.4921 25.2591 68.1985 24.8958 67.7934 24.6783C67.3894 24.4613 66.9257 24.417 66.4881 24.5536L63.9022 25.3611C63.0312 25.6332 62.5276 26.5663 62.7797 27.4413C63.5664 30.1722 63.9443 33.0142 63.9028 35.8882C63.7902 43.6724 60.6577 50.9181 55.0823 56.2903C49.499 61.6702 42.1299 64.5354 34.3294 64.359C27.5662 64.2058 21.1995 61.7469 16.1481 57.3814H18.3879C19.3212 57.3814 20.0807 56.6221 20.0807 55.6886V52.9801C20.0807 52.0467 19.3214 51.2872 18.3879 51.2872H7.50887C6.50084 51.2872 5.68066 52.1074 5.68066 53.1154V55.2579C5.68066 55.8189 6.13539 56.2736 6.69635 56.2736C7.2573 56.2736 7.71203 55.8189 7.71203 55.2579V53.3186H18.0493V55.3499H13.5909C13.1826 55.3499 12.814 55.5945 12.6552 55.9708C12.4965 56.347 12.5784 56.7818 12.8633 57.0742C18.5333 62.897 26.1405 66.2053 34.2836 66.3897C42.6267 66.578 50.5157 63.5115 56.4921 57.7529C62.4604 52.002 65.8137 44.2473 65.9341 35.9173C65.9769 32.956 65.6031 30.0255 64.823 27.2013L66.7631 26.5955C67.5633 29.4689 67.9689 32.4497 67.9689 35.4605C67.9689 44.2668 64.5396 52.546 58.3126 58.7728C52.0856 64.9997 43.8063 68.4296 35 68.4296C26.065 68.4296 17.7137 64.9282 11.4845 58.5705C11.1958 58.2757 10.7572 58.1851 10.3752 58.3409C9.99305 58.4969 9.7434 58.8687 9.7434 59.2813V63.6562H7.71203V59.9671C7.71203 59.4061 7.2573 58.9514 6.69635 58.9514C6.13539 58.9514 5.68066 59.4061 5.68066 59.9671V63.9947C5.68066 64.928 6.44 65.6875 7.37352 65.6875H10.0821C11.0154 65.6875 11.7749 64.9282 11.7749 63.9947V61.6535C18.1654 67.3503 26.324 70.4609 35 70.4609C44.349 70.4609 53.1381 66.8202 59.7487 60.2096C66.3593 53.599 70 44.8097 70 35.4609C70 32.1434 69.5357 28.8599 68.6202 25.7011Z" fill="#A55C95"/>
<path d="M31.953 26.4116V31.048C30.5535 32.0174 29.6345 33.6335 29.6345 35.4609C29.6345 38.4195 32.0415 40.8264 35 40.8264C36.8276 40.8264 38.4437 39.9074 39.4129 38.5079H49.0587C49.9921 38.5079 50.7515 37.7486 50.7515 36.8151V34.1066C50.7515 33.1732 49.9922 32.4137 49.0587 32.4137H39.4129C39.0435 31.8804 38.5803 31.4172 38.0471 31.0479V26.4115C38.0471 25.4781 37.2878 24.7186 36.3542 24.7186H33.6457C32.7123 24.7188 31.953 25.4781 31.953 26.4116ZM35 38.795C33.1616 38.795 31.6659 37.2993 31.6659 35.4609C31.6659 33.6224 33.1616 32.1267 35 32.1267C36.8385 32.1267 38.3342 33.6224 38.3342 35.4609C38.3342 37.2993 36.8385 38.795 35 38.795ZM48.7202 34.4452V36.4766H40.2678C40.3311 36.1475 40.3656 35.8082 40.3656 35.4609C40.3656 35.1136 40.3313 34.7743 40.2678 34.4452H48.7202ZM36.0157 26.7501V30.193C35.6866 30.1297 35.3473 30.0952 35 30.0952C34.6528 30.0952 34.3134 30.1295 33.9844 30.193V26.7501H36.0157Z" fill="#A55C95"/>
<path d="M21.632 36.2144C21.8992 35.5696 21.5932 34.8302 20.9484 34.563C20.3036 34.2957 19.5642 34.6017 19.2969 35.2465C19.0297 35.8913 19.3357 36.6307 19.9805 36.898C20.6253 37.1653 21.3647 36.8592 21.632 36.2144Z" fill="#A55C95"/>
<path d="M22.5328 44.2234C23.2307 44.2234 23.7964 43.6577 23.7964 42.9598C23.7964 42.262 23.2307 41.6963 22.5328 41.6963C21.835 41.6963 21.2693 42.262 21.2693 42.9598C21.2693 43.6577 21.835 44.2234 22.5328 44.2234Z" fill="#A55C95"/>
<path d="M28.6578 49.2436C29.2398 48.8584 29.3993 48.0743 29.0141 47.4923C28.6289 46.9103 27.8448 46.7508 27.2628 47.136C26.6808 47.5212 26.5213 48.3053 26.9065 48.8873C27.2917 49.4693 28.0758 49.6288 28.6578 49.2436Z" fill="#A55C95"/>
<path d="M35.2606 51.2708C35.9585 51.2708 36.5242 50.7051 36.5242 50.0072C36.5242 49.3094 35.9585 48.7437 35.2606 48.7437C34.5628 48.7437 33.9971 49.3094 33.9971 50.0072C33.9971 50.7051 34.5628 51.2708 35.2606 51.2708Z" fill="#A55C95"/>
<path d="M42.4989 49.1915C43.1967 49.1915 43.7625 48.6258 43.7625 47.928C43.7625 47.2301 43.1967 46.6644 42.4989 46.6644C41.8011 46.6644 41.2354 47.2301 41.2354 47.928C41.2354 48.6258 41.8011 49.1915 42.4989 49.1915Z" fill="#A55C95"/>
<path d="M46.6336 41.8765C46.2847 42.4808 46.4917 43.2537 47.0961 43.6026C47.7004 43.9515 48.4733 43.7445 48.8222 43.1401C49.1711 42.5358 48.9641 41.7629 48.3597 41.414C47.7554 41.0651 46.9825 41.2722 46.6336 41.8765Z" fill="#A55C95"/>
<path d="M48.2286 28.9903C48.7981 28.5863 48.9321 27.7971 48.5281 27.2277C48.124 26.6582 47.3349 26.5241 46.7654 26.9282C46.196 27.3322 46.0619 28.1214 46.466 28.6909C46.87 29.2603 47.6592 29.3944 48.2286 28.9903Z" fill="#A55C95"/>
<path d="M43.1415 23.3649C43.4904 22.7606 43.2835 21.9879 42.679 21.6389C42.0747 21.29 41.302 21.4969 40.9529 22.1014C40.604 22.7057 40.811 23.4784 41.4155 23.8275C42.0199 24.1764 42.7926 23.9692 43.1415 23.3649Z" fill="#A55C95"/>
<path d="M35.6268 21.8096C36.1201 21.3162 36.1201 20.5163 35.6268 20.0229C35.1334 19.5295 34.3335 19.5295 33.8401 20.0229C33.3467 20.5163 33.3467 21.3162 33.8401 21.8096C34.3335 22.303 35.1334 22.303 35.6268 21.8096Z" fill="#A55C95"/>
<path d="M28.5852 23.6762C28.9529 23.0831 28.7702 22.3041 28.177 21.9363C27.5839 21.5685 26.8049 21.7513 26.4371 22.3444C26.0694 22.9376 26.2521 23.7166 26.8453 24.0844C27.4384 24.4521 28.2174 24.2694 28.5852 23.6762Z" fill="#A55C95"/>
<path d="M22.9039 27.3193C22.2996 26.9704 21.5267 27.1774 21.1778 27.7818C20.8289 28.3861 21.0359 29.159 21.6403 29.5079C22.2446 29.8568 23.0175 29.6498 23.3664 29.0454C23.7153 28.4409 23.5082 27.6682 22.9039 27.3193Z" fill="#A55C95"/>
</g>
<defs>
<clipPath id="clip0">
<rect width="70" height="70" fill="white" transform="translate(0 0.460938)"/>
</clipPath>
</defs>
</svg>
