<svg width="316" height="16" viewBox="0 0 316 16" fill="none" xmlns="http://www.w3.org/2000/svg">
<path d="M6.28125 2.01562H1.78906V12H0.46875V0.796875H6.28125V2.01562ZM13.6797 12H12.4062V5.08594H10.5469C10.3333 7.67448 9.96615 9.49219 9.44531 10.5391C8.92969 11.5859 8.23438 12.1094 7.35938 12.1094C7.09375 12.1094 6.86458 12.0729 6.67188 12V10.8984C6.85417 10.9922 7.05208 11.0391 7.26562 11.0391C8.41146 11.0391 9.14844 8.69271 9.47656 4H13.6797V12ZM22.0078 12H20.7266V10.75H20.6953C20.138 11.7083 19.3177 12.1875 18.2344 12.1875C17.4375 12.1875 16.8125 11.9766 16.3594 11.5547C15.9115 11.1328 15.6875 10.5729 15.6875 9.875C15.6875 8.38021 16.5677 7.51042 18.3281 7.26562L20.7266 6.92969C20.7266 5.57031 20.1771 4.89062 19.0781 4.89062C18.1146 4.89062 17.2448 5.21875 16.4688 5.875V4.5625C17.2552 4.0625 18.1615 3.8125 19.1875 3.8125C21.0677 3.8125 22.0078 4.80729 22.0078 6.79688V12ZM20.7266 7.95312L18.7969 8.21875C18.2031 8.30208 17.7552 8.45052 17.4531 8.66406C17.151 8.8724 17 9.24479 17 9.78125C17 10.1719 17.138 10.4922 17.4141 10.7422C17.6953 10.987 18.0677 11.1094 18.5312 11.1094C19.1667 11.1094 19.6901 10.888 20.1016 10.4453C20.5182 9.9974 20.7266 9.43229 20.7266 8.75V7.95312ZM24.4219 12V4H27.9062C28.6927 4 29.3125 4.17448 29.7656 4.52344C30.224 4.8724 30.4531 5.34896 30.4531 5.95312C30.4531 6.98958 29.9427 7.61979 28.9219 7.84375C30.1458 8 30.7578 8.61719 30.7578 9.69531C30.7578 10.3464 30.5052 10.8932 30 11.3359C29.5 11.7786 28.8776 12 28.1328 12H24.4219ZM25.7031 5.09375V7.34375H27.625C28.6562 7.34375 29.1719 6.94271 29.1719 6.14062C29.1719 5.44271 28.7083 5.09375 27.7812 5.09375H25.7031ZM25.7031 8.4375V10.9062H27.9219C28.9583 10.9062 29.4766 10.487 29.4766 9.64844C29.4766 8.84115 28.8958 8.4375 27.7344 8.4375H25.7031ZM39.5469 12H38.2656V8.36719H34.1875V12H32.9062V4H34.1875V7.28125H38.2656V4H39.5469V12ZM47.8672 12H46.5859V10.75H46.5547C45.9974 11.7083 45.1771 12.1875 44.0938 12.1875C43.2969 12.1875 42.6719 11.9766 42.2188 11.5547C41.7708 11.1328 41.5469 10.5729 41.5469 9.875C41.5469 8.38021 42.4271 7.51042 44.1875 7.26562L46.5859 6.92969C46.5859 5.57031 46.0365 4.89062 44.9375 4.89062C43.974 4.89062 43.1042 5.21875 42.3281 5.875V4.5625C43.1146 4.0625 44.0208 3.8125 45.0469 3.8125C46.9271 3.8125 47.8672 4.80729 47.8672 6.79688V12ZM46.5859 7.95312L44.6562 8.21875C44.0625 8.30208 43.6146 8.45052 43.3125 8.66406C43.0104 8.8724 42.8594 9.24479 42.8594 9.78125C42.8594 10.1719 42.9974 10.4922 43.2734 10.7422C43.5547 10.987 43.9271 11.1094 44.3906 11.1094C45.026 11.1094 45.5495 10.888 45.9609 10.4453C46.3776 9.9974 46.5859 9.43229 46.5859 8.75V7.95312ZM55.75 12H54.4688V8.6875H53.3984C52.8828 8.6875 52.4141 9.10417 51.9922 9.9375L50.9531 12H49.4688L50.8125 9.53125C51.125 8.95833 51.5026 8.58073 51.9453 8.39844C51.3203 8.3151 50.8438 8.08594 50.5156 7.71094C50.1875 7.33594 50.0234 6.86719 50.0234 6.30469C50.0234 5.59635 50.2786 5.03646 50.7891 4.625C51.3047 4.20833 52.026 4 52.9531 4H55.75V12ZM54.4688 7.61719V5.09375H52.9531C51.875 5.09375 51.3359 5.5026 51.3359 6.32031C51.3359 7.1849 51.8594 7.61719 52.9062 7.61719H54.4688ZM70.2656 7.63281L63.5469 11.0078V9.84375L68.5781 7.40625V7.35938L63.5469 4.57812V3.40625L70.2656 7.17188V7.63281ZM86.0312 12H84.2031L79.875 6.875C79.7135 6.68229 79.6146 6.55208 79.5781 6.48438H79.5469V12H78.2344V0.796875H79.5469V6.0625H79.5781C79.651 5.94792 79.75 5.82031 79.875 5.67969L84.0625 0.796875H85.6953L80.8906 6.17188L86.0312 12ZM93.0703 12H91.7891V10.75H91.7578C91.2005 11.7083 90.3802 12.1875 89.2969 12.1875C88.5 12.1875 87.875 11.9766 87.4219 11.5547C86.974 11.1328 86.75 10.5729 86.75 9.875C86.75 8.38021 87.6302 7.51042 89.3906 7.26562L91.7891 6.92969C91.7891 5.57031 91.2396 4.89062 90.1406 4.89062C89.1771 4.89062 88.3073 5.21875 87.5312 5.875V4.5625C88.3177 4.0625 89.224 3.8125 90.25 3.8125C92.1302 3.8125 93.0703 4.80729 93.0703 6.79688V12ZM91.7891 7.95312L89.8594 8.21875C89.2656 8.30208 88.8177 8.45052 88.5156 8.66406C88.2135 8.8724 88.0625 9.24479 88.0625 9.78125C88.0625 10.1719 88.2005 10.4922 88.4766 10.7422C88.7578 10.987 89.1302 11.1094 89.5938 11.1094C90.2292 11.1094 90.7526 10.888 91.1641 10.4453C91.5807 9.9974 91.7891 9.43229 91.7891 8.75V7.95312ZM100.508 5.09375H98.1094V12H96.8281V5.09375H94.4219V4H100.508V5.09375ZM107.773 12H106.492V10.75H106.461C105.904 11.7083 105.083 12.1875 104 12.1875C103.203 12.1875 102.578 11.9766 102.125 11.5547C101.677 11.1328 101.453 10.5729 101.453 9.875C101.453 8.38021 102.333 7.51042 104.094 7.26562L106.492 6.92969C106.492 5.57031 105.943 4.89062 104.844 4.89062C103.88 4.89062 103.01 5.21875 102.234 5.875V4.5625C103.021 4.0625 103.927 3.8125 104.953 3.8125C106.833 3.8125 107.773 4.80729 107.773 6.79688V12ZM106.492 7.95312L104.562 8.21875C103.969 8.30208 103.521 8.45052 103.219 8.66406C102.917 8.8724 102.766 9.24479 102.766 9.78125C102.766 10.1719 102.904 10.4922 103.18 10.7422C103.461 10.987 103.833 11.1094 104.297 11.1094C104.932 11.1094 105.456 10.888 105.867 10.4453C106.284 9.9974 106.492 9.43229 106.492 8.75V7.95312ZM116.023 12H114.75V5.08594H112.891C112.677 7.67448 112.31 9.49219 111.789 10.5391C111.273 11.5859 110.578 12.1094 109.703 12.1094C109.438 12.1094 109.208 12.0729 109.016 12V10.8984C109.198 10.9922 109.396 11.0391 109.609 11.0391C110.755 11.0391 111.492 8.69271 111.82 4H116.023V12ZM121.969 12.1875C120.786 12.1875 119.841 11.8151 119.133 11.0703C118.43 10.3203 118.078 9.32812 118.078 8.09375C118.078 6.75 118.445 5.70052 119.18 4.94531C119.914 4.1901 120.906 3.8125 122.156 3.8125C123.349 3.8125 124.279 4.17969 124.945 4.91406C125.617 5.64844 125.953 6.66667 125.953 7.96875C125.953 9.24479 125.591 10.2682 124.867 11.0391C124.148 11.8047 123.182 12.1875 121.969 12.1875ZM122.062 4.89062C121.24 4.89062 120.589 5.17188 120.109 5.73438C119.63 6.29167 119.391 7.0625 119.391 8.04688C119.391 8.99479 119.633 9.74219 120.117 10.2891C120.602 10.8359 121.25 11.1094 122.062 11.1094C122.891 11.1094 123.526 10.8411 123.969 10.3047C124.417 9.76823 124.641 9.00521 124.641 8.01562C124.641 7.01562 124.417 6.24479 123.969 5.70312C123.526 5.16146 122.891 4.89062 122.062 4.89062ZM132.445 5.09375H129.281V12H128V4H132.445V5.09375ZM146.062 7.63281L139.344 11.0078V9.84375L144.375 7.40625V7.35938L139.344 4.57812V3.40625L146.062 7.17188V7.63281Z" fill="#606060"/>
<path d="M166.578 12H164.82L160.438 6.875C160.312 6.72917 160.216 6.59896 160.148 6.48438H160.109V12H158.867V6.48438H158.836C158.758 6.61458 158.661 6.74479 158.547 6.875L154.164 12H152.391L157.523 6.1875L152.734 0.796875H154.344L158.547 5.64844C158.661 5.77865 158.758 5.90625 158.836 6.03125H158.867V0.796875H160.109V6.03125H160.148C160.216 5.91667 160.312 5.78906 160.438 5.64844L164.641 0.796875H166.242L161.453 6.1875L166.578 12ZM174.164 8.32031H168.516C168.536 9.21094 168.776 9.89844 169.234 10.3828C169.693 10.8672 170.323 11.1094 171.125 11.1094C172.026 11.1094 172.854 10.8125 173.609 10.2188V11.4219C172.906 11.9323 171.977 12.1875 170.82 12.1875C169.69 12.1875 168.802 11.8255 168.156 11.1016C167.51 10.3724 167.188 9.34896 167.188 8.03125C167.188 6.78646 167.539 5.77344 168.242 4.99219C168.951 4.20573 169.828 3.8125 170.875 3.8125C171.922 3.8125 172.732 4.15104 173.305 4.82812C173.878 5.50521 174.164 6.44531 174.164 7.64844V8.32031ZM172.852 7.23438C172.846 6.49479 172.667 5.91927 172.312 5.50781C171.964 5.09635 171.477 4.89062 170.852 4.89062C170.247 4.89062 169.734 5.10677 169.312 5.53906C168.891 5.97135 168.63 6.53646 168.531 7.23438H172.852ZM182.75 12H181.469V8.36719H177.391V12H176.109V4H177.391V7.28125H181.469V4H182.75V12ZM190.797 11.6328C190.182 12.0026 189.453 12.1875 188.609 12.1875C187.469 12.1875 186.547 11.8177 185.844 11.0781C185.146 10.3333 184.797 9.36979 184.797 8.1875C184.797 6.86979 185.174 5.8125 185.93 5.01562C186.685 4.21354 187.693 3.8125 188.953 3.8125C189.656 3.8125 190.276 3.94271 190.812 4.20312V5.51562C190.219 5.09896 189.583 4.89062 188.906 4.89062C188.089 4.89062 187.417 5.1849 186.891 5.77344C186.37 6.35677 186.109 7.125 186.109 8.07812C186.109 9.01562 186.354 9.75521 186.844 10.2969C187.339 10.8385 188 11.1094 188.828 11.1094C189.526 11.1094 190.182 10.8776 190.797 10.4141V11.6328ZM199.375 12H197.578L194.047 8.15625H194.016V12H192.734V4H194.016V7.66406H194.047L197.406 4H199.086L195.375 7.85938L199.375 12ZM206.414 12H205.133V10.75H205.102C204.544 11.7083 203.724 12.1875 202.641 12.1875C201.844 12.1875 201.219 11.9766 200.766 11.5547C200.318 11.1328 200.094 10.5729 200.094 9.875C200.094 8.38021 200.974 7.51042 202.734 7.26562L205.133 6.92969C205.133 5.57031 204.583 4.89062 203.484 4.89062C202.521 4.89062 201.651 5.21875 200.875 5.875V4.5625C201.661 4.0625 202.568 3.8125 203.594 3.8125C205.474 3.8125 206.414 4.80729 206.414 6.79688V12ZM205.133 7.95312L203.203 8.21875C202.609 8.30208 202.161 8.45052 201.859 8.66406C201.557 8.8724 201.406 9.24479 201.406 9.78125C201.406 10.1719 201.544 10.4922 201.82 10.7422C202.102 10.987 202.474 11.1094 202.938 11.1094C203.573 11.1094 204.096 10.888 204.508 10.4453C204.924 9.9974 205.133 9.43229 205.133 8.75V7.95312ZM214.297 12H213.016V8.6875H211.945C211.43 8.6875 210.961 9.10417 210.539 9.9375L209.5 12H208.016L209.359 9.53125C209.672 8.95833 210.049 8.58073 210.492 8.39844C209.867 8.3151 209.391 8.08594 209.062 7.71094C208.734 7.33594 208.57 6.86719 208.57 6.30469C208.57 5.59635 208.826 5.03646 209.336 4.625C209.852 4.20833 210.573 4 211.5 4H214.297V12ZM213.016 7.61719V5.09375H211.5C210.422 5.09375 209.883 5.5026 209.883 6.32031C209.883 7.1849 210.406 7.61719 211.453 7.61719H213.016ZM227.906 12H226.625V5.09375H222.547V12H221.266V4H227.906V12ZM236.227 12H234.945V10.75H234.914C234.357 11.7083 233.536 12.1875 232.453 12.1875C231.656 12.1875 231.031 11.9766 230.578 11.5547C230.13 11.1328 229.906 10.5729 229.906 9.875C229.906 8.38021 230.786 7.51042 232.547 7.26562L234.945 6.92969C234.945 5.57031 234.396 4.89062 233.297 4.89062C232.333 4.89062 231.464 5.21875 230.688 5.875V4.5625C231.474 4.0625 232.38 3.8125 233.406 3.8125C235.286 3.8125 236.227 4.80729 236.227 6.79688V12ZM234.945 7.95312L233.016 8.21875C232.422 8.30208 231.974 8.45052 231.672 8.66406C231.37 8.8724 231.219 9.24479 231.219 9.78125C231.219 10.1719 231.357 10.4922 231.633 10.7422C231.914 10.987 232.286 11.1094 232.75 11.1094C233.385 11.1094 233.909 10.888 234.32 10.4453C234.737 9.9974 234.945 9.43229 234.945 8.75V7.95312ZM239.953 10.8438H239.922V15.6797H238.641V4H239.922V5.40625H239.953C240.583 4.34375 241.505 3.8125 242.719 3.8125C243.75 3.8125 244.555 4.17188 245.133 4.89062C245.711 5.60417 246 6.5625 246 7.76562C246 9.10417 245.674 10.1771 245.023 10.9844C244.372 11.7865 243.482 12.1875 242.352 12.1875C241.315 12.1875 240.516 11.7396 239.953 10.8438ZM239.922 7.61719V8.73438C239.922 9.39583 240.135 9.95833 240.562 10.4219C240.995 10.8802 241.542 11.1094 242.203 11.1094C242.979 11.1094 243.586 10.8125 244.023 10.2188C244.466 9.625 244.688 8.79948 244.688 7.74219C244.688 6.85156 244.482 6.15365 244.07 5.64844C243.659 5.14323 243.102 4.89062 242.398 4.89062C241.654 4.89062 241.055 5.15104 240.602 5.67188C240.148 6.1875 239.922 6.83594 239.922 7.61719ZM252.812 12.1875V15.7656H251.656V12.1875H251.406C250.24 12.1875 249.297 11.8099 248.578 11.0547C247.859 10.2995 247.5 9.3125 247.5 8.09375C247.5 6.79688 247.862 5.76042 248.586 4.98438C249.315 4.20312 250.276 3.8125 251.469 3.8125H251.656V0.609375H252.812V3.8125H252.984C254.188 3.8125 255.151 4.20052 255.875 4.97656C256.604 5.7474 256.969 6.78646 256.969 8.09375C256.969 9.3125 256.612 10.2995 255.898 11.0547C255.185 11.8099 254.247 12.1875 253.086 12.1875H252.812ZM252.812 4.89062V11.1094H252.984C253.797 11.1094 254.445 10.8359 254.93 10.2891C255.414 9.73698 255.656 8.98958 255.656 8.04688C255.656 7.05729 255.417 6.28385 254.938 5.72656C254.464 5.16927 253.826 4.89062 253.023 4.89062H252.812ZM251.656 11.1094V4.89062H251.469C250.667 4.89062 250.023 5.17188 249.539 5.73438C249.055 6.29167 248.812 7.0625 248.812 8.04688C248.812 8.97917 249.055 9.72396 249.539 10.2812C250.029 10.8333 250.682 11.1094 251.5 11.1094H251.656ZM262.578 8.36719H260.312V12H259.031V4H260.312V7.28125H262.594C262.729 6.1875 263.13 5.33594 263.797 4.72656C264.469 4.11719 265.328 3.8125 266.375 3.8125C267.516 3.8125 268.398 4.17188 269.023 4.89062C269.654 5.60938 269.969 6.63542 269.969 7.96875C269.969 9.26562 269.633 10.2943 268.961 11.0547C268.289 11.8099 267.365 12.1875 266.188 12.1875C265.078 12.1875 264.211 11.8542 263.586 11.1875C262.966 10.5156 262.63 9.57552 262.578 8.36719ZM266.266 4.89062C264.672 4.89062 263.875 5.93229 263.875 8.01562C263.875 10.0781 264.682 11.1094 266.297 11.1094C267.875 11.1094 268.664 10.0781 268.664 8.01562C268.664 5.93229 267.865 4.89062 266.266 4.89062ZM280.688 12H279.422V5.40625C279.307 5.73958 279.13 6.22917 278.891 6.875L276.891 12H275.742L273.68 6.875C273.57 6.59896 273.393 6.10938 273.148 5.40625V12H272.047V4H273.68L275.789 9.21875C275.94 9.59896 276.133 10.125 276.367 10.7969L276.938 9.25L278.984 4H280.688V12ZM289.711 8.32031H284.062C284.083 9.21094 284.323 9.89844 284.781 10.3828C285.24 10.8672 285.87 11.1094 286.672 11.1094C287.573 11.1094 288.401 10.8125 289.156 10.2188V11.4219C288.453 11.9323 287.523 12.1875 286.367 12.1875C285.237 12.1875 284.349 11.8255 283.703 11.1016C283.057 10.3724 282.734 9.34896 282.734 8.03125C282.734 6.78646 283.086 5.77344 283.789 4.99219C284.497 4.20573 285.375 3.8125 286.422 3.8125C287.469 3.8125 288.279 4.15104 288.852 4.82812C289.424 5.50521 289.711 6.44531 289.711 7.64844V8.32031ZM288.398 7.23438C288.393 6.49479 288.214 5.91927 287.859 5.50781C287.51 5.09635 287.023 4.89062 286.398 4.89062C285.794 4.89062 285.281 5.10677 284.859 5.53906C284.438 5.97135 284.177 6.53646 284.078 7.23438H288.398ZM292.969 10.8438H292.938V15.6797H291.656V4H292.938V5.40625H292.969C293.599 4.34375 294.521 3.8125 295.734 3.8125C296.766 3.8125 297.57 4.17188 298.148 4.89062C298.727 5.60417 299.016 6.5625 299.016 7.76562C299.016 9.10417 298.69 10.1771 298.039 10.9844C297.388 11.7865 296.497 12.1875 295.367 12.1875C294.331 12.1875 293.531 11.7396 292.969 10.8438ZM292.938 7.61719V8.73438C292.938 9.39583 293.151 9.95833 293.578 10.4219C294.01 10.8802 294.557 11.1094 295.219 11.1094C295.995 11.1094 296.602 10.8125 297.039 10.2188C297.482 9.625 297.703 8.79948 297.703 7.74219C297.703 6.85156 297.497 6.15365 297.086 5.64844C296.674 5.14323 296.117 4.89062 295.414 4.89062C294.669 4.89062 294.07 5.15104 293.617 5.67188C293.164 6.1875 292.938 6.83594 292.938 7.61719ZM307.766 12H306.609V5.61719C306.495 5.84115 306.32 6.15625 306.086 6.5625L302.391 12H301.062V4H302.234V10.3047C302.297 10.1536 302.432 9.89583 302.641 9.53125L306.438 4H307.766V12ZM315.828 12H314.547V8.6875H313.477C312.961 8.6875 312.492 9.10417 312.07 9.9375L311.031 12H309.547L310.891 9.53125C311.203 8.95833 311.581 8.58073 312.023 8.39844C311.398 8.3151 310.922 8.08594 310.594 7.71094C310.266 7.33594 310.102 6.86719 310.102 6.30469C310.102 5.59635 310.357 5.03646 310.867 4.625C311.383 4.20833 312.104 4 313.031 4H315.828V12ZM314.547 7.61719V5.09375H313.031C311.953 5.09375 311.414 5.5026 311.414 6.32031C311.414 7.1849 311.938 7.61719 312.984 7.61719H314.547Z" fill="#242424"/>
</svg>
