<svg width="20" height="20" viewBox="0 0 20 20" fill="none" xmlns="http://www.w3.org/2000/svg">
<path d="M18.1723 18.5072L16.8024 6.00723C16.7275 5.32336 16.1522 4.8077 15.4643 4.8077H14.423V4.42309C14.4231 1.98418 12.4389 0 9.99998 0C7.56112 0 5.5769 1.98418 5.5769 4.42309V4.8077H4.53565C3.84772 4.8077 3.27241 5.3234 3.19748 6.00723L1.82764 18.5072C1.78608 18.887 1.90846 19.268 2.16342 19.5524C2.41838 19.8369 2.78377 20 3.1658 20H16.8342C16.9036 20 16.9725 19.9945 17.0403 19.9839C17.0424 19.9836 17.0446 19.9834 17.0467 19.983C17.0583 19.9812 17.0697 19.9788 17.0812 19.9766C17.0928 19.9744 17.1046 19.9725 17.1161 19.97C17.1241 19.9683 17.132 19.9661 17.1399 19.9643C17.1548 19.9607 17.1697 19.9575 17.1845 19.9534C17.3353 19.9127 17.478 19.8457 17.6061 19.756C17.6127 19.7514 17.6195 19.747 17.626 19.7423C17.7021 19.687 17.7727 19.6234 17.8365 19.5523C18.0915 19.2679 18.2139 18.8869 18.1723 18.5072ZM6.73073 4.42309C6.73073 2.62043 8.19729 1.15387 9.99994 1.15387C11.8026 1.15387 13.2692 2.62043 13.2692 4.42309V4.8077H6.73073V4.42309ZM4.34451 6.13289C4.35522 6.0352 4.4374 5.96156 4.53565 5.96156H5.5769V7.69234C5.5769 8.01098 5.83522 8.26926 6.15381 8.26926C6.4724 8.26926 6.73073 8.01094 6.73073 7.69234V5.96156H13.2692V7.69234C13.2692 8.01098 13.5275 8.26926 13.8461 8.26926C14.1647 8.26926 14.423 8.01094 14.423 7.69234V5.96156H15.4643C15.5626 5.96156 15.6447 6.03527 15.6554 6.13293L16.6904 15.5769H3.30955L4.34451 6.13289ZM16.9774 18.7822C16.956 18.8061 16.9089 18.8461 16.8342 18.8461H3.1658C3.09112 18.8461 3.04405 18.8061 3.0226 18.7822C3.00119 18.7583 2.96647 18.7071 2.97463 18.6329L3.18315 16.7308H16.8169L17.0253 18.6329C17.0335 18.7071 16.9988 18.7584 16.9774 18.7822Z" fill="#A55C95"/>
</svg>
