<svg width="17" height="17" viewBox="0 0 17 17" fill="none" xmlns="http://www.w3.org/2000/svg">
<path d="M16.5375 12.4763L14.1651 10.1039C13.3178 9.2566 11.8774 9.59555 11.5385 10.697C11.2843 11.4596 10.4371 11.8832 9.67451 11.7137C7.97993 11.2901 5.69226 9.08714 5.26862 7.30784C5.01443 6.54525 5.5228 5.69797 6.28536 5.44381C7.38683 5.1049 7.72575 3.66451 6.87846 2.81723L4.50606 0.444825C3.82823 -0.148275 2.81149 -0.148275 2.21839 0.444825L0.608546 2.05467C-1.0013 3.74924 0.778003 8.23986 4.76025 12.2221C8.74249 16.2043 13.2331 18.0684 14.9277 16.3738L16.5375 14.764C17.1307 14.0861 17.1307 13.0694 16.5375 12.4763Z" fill="#844476"/>
</svg>
