<svg width="19" height="19" viewBox="0 0 19 19" fill="none" xmlns="http://www.w3.org/2000/svg">
<path d="M16.3857 4.93881C15.7164 2.77578 13.9568 1.01565 11.7937 0.346229C9.5044 -0.362931 7.06861 0.0312078 5.2094 1.40114C3.36387 2.7616 2.26221 4.94096 2.26221 7.23076C2.26221 8.8104 2.76192 10.3111 3.70699 11.5705L9.50069 19L15.2944 11.5699C16.7087 9.68417 17.1068 7.2672 16.3857 4.93881ZM9.50069 11.1284C7.35176 11.1284 5.60305 9.37965 5.60305 7.23072C5.60305 5.08179 7.35176 3.33309 9.50069 3.33309C11.6496 3.33309 13.3983 5.08179 13.3983 7.23072C13.3983 9.37965 11.6496 11.1284 9.50069 11.1284Z" fill="#844476"/>
<path d="M9.50081 4.45412C7.96579 4.45412 6.7168 5.69569 6.7168 7.23072C6.7168 8.76575 7.96579 10.0147 9.50081 10.0147C11.0358 10.0147 12.2848 8.76575 12.2848 7.23072C12.2849 5.69569 11.0358 4.45412 9.50081 4.45412Z" fill="#844476"/>
</svg>
