<svg width="30" height="30" viewBox="0 0 30 30" fill="none" xmlns="http://www.w3.org/2000/svg">
<path d="M19.2188 22.5H17.8126V21.5625H20.5449C20.4476 21.8365 20.2679 22.0737 20.0305 22.2415C19.7931 22.4094 19.5096 22.4996 19.2188 22.5Z" fill="#A55C95"/>
<path d="M9.84375 5.625H3.28125V5.15625C3.28125 4.28601 3.62695 3.45141 4.24231 2.83606C4.85766 2.2207 5.69226 1.875 6.5625 1.875C7.43274 1.875 8.26734 2.2207 8.88269 2.83606C9.49805 3.45141 9.84375 4.28601 9.84375 5.15625V5.625Z" fill="#A55C95"/>
<path d="M16.875 19.6875H15V24.375H16.875V19.6875Z" fill="#A55C95"/>
<path d="M14.0625 19.2188V19.6875H13.125V10.3125H17.3438V14.5312C17.3437 14.6161 17.3668 14.6994 17.4104 14.7722C17.454 14.845 17.5165 14.9046 17.5914 14.9446C17.6662 14.9847 17.7505 15.0036 17.8352 14.9995C17.92 14.9954 18.0021 14.9683 18.0727 14.9213L19.2188 14.1563L20.3648 14.9203C20.4354 14.9674 20.5173 14.9944 20.602 14.9986C20.6867 15.0027 20.7709 14.9838 20.8457 14.9439C20.9205 14.904 20.9831 14.8445 21.0268 14.7719C21.0704 14.6992 21.0936 14.616 21.0938 14.5312V10.3125H25.3125V20.625H17.8125V19.2188C17.8125 19.0944 17.7631 18.9752 17.6752 18.8873C17.5873 18.7994 17.4681 18.75 17.3438 18.75H14.5312C14.4069 18.75 14.2877 18.7994 14.1998 18.8873C14.1119 18.9752 14.0625 19.0944 14.0625 19.2188Z" fill="#A55C95"/>
<path d="M6.09375 12.1875H6.5625V13.125H4.6875V11.7188C4.68754 11.6316 4.66331 11.5462 4.61752 11.4721C4.57173 11.398 4.5062 11.3382 4.42828 11.2992C4.22388 11.1981 4.05195 11.0416 3.93205 10.8476C3.81214 10.6537 3.74907 10.4299 3.75 10.2019V6.5625H9.375V8.90625C9.37426 9.52762 9.12709 10.1233 8.68771 10.5627C8.24833 11.0021 7.65262 11.2493 7.03125 11.25H6.09375C5.96943 11.25 5.8502 11.2994 5.76229 11.3873C5.67439 11.4752 5.625 11.5944 5.625 11.7188C5.625 11.8431 5.67439 11.9623 5.76229 12.0502C5.8502 12.1381 5.96943 12.1875 6.09375 12.1875Z" fill="#A55C95"/>
<path d="M1.875 16.4062C1.87574 15.7849 2.12291 15.1892 2.56229 14.7498C3.00167 14.3104 3.59738 14.0632 4.21875 14.0625H7.96875C8.59012 14.0632 9.18583 14.3104 9.62521 14.7498C10.0646 15.1892 10.3118 15.7849 10.3125 16.4062V19.6875H8.90625C8.78193 19.6875 8.6627 19.6381 8.57479 19.5502C8.48689 19.4623 8.4375 19.3431 8.4375 19.2188V17.3438C8.4375 16.7221 8.19057 16.126 7.75103 15.6865C7.31149 15.2469 6.71535 15 6.09375 15C5.47215 15 4.87601 15.2469 4.43647 15.6865C3.99693 16.126 3.75 16.7221 3.75 17.3438V20.1562C3.75124 21.2748 4.19611 22.3471 4.98701 23.138C5.77791 23.9289 6.85025 24.3738 7.96875 24.375H10.3125V26.25H1.875V16.4062Z" fill="#A55C95"/>
<path d="M19.4789 13.2038C19.4019 13.1524 19.3114 13.1249 19.2188 13.1249C19.1261 13.1249 19.0356 13.1524 18.9586 13.2038L18.2812 13.6552V10.3125H20.1562V13.6552L19.4789 13.2038Z" fill="#A55C95"/>
<path d="M10.3125 27.1875H1.875V28.125H10.3125V27.1875Z" fill="#A55C95"/>
<path d="M4.6875 20.1562V17.3438C4.6875 16.9708 4.83566 16.6131 5.09938 16.3494C5.3631 16.0857 5.72079 15.9375 6.09375 15.9375C6.46671 15.9375 6.8244 16.0857 7.08812 16.3494C7.35184 16.6131 7.5 16.9708 7.5 17.3438V19.2188C7.5 19.5917 7.64816 19.9494 7.91188 20.2131C8.1756 20.4768 8.53329 20.625 8.90625 20.625H14.0625V23.4375H7.96875C7.09881 23.4365 6.26479 23.0905 5.64965 22.4753C5.03451 21.8602 4.68849 21.0262 4.6875 20.1562Z" fill="#A55C95"/>
<path d="M12.6562 5.625H10.3125V6.5625H12.6562C12.7806 6.5625 12.8998 6.51311 12.9877 6.42521C13.0756 6.3373 13.125 6.21807 13.125 6.09375C13.125 5.96943 13.0756 5.8502 12.9877 5.76229C12.8998 5.67439 12.7806 5.625 12.6562 5.625Z" fill="#A55C95"/>
</svg>
