<svg width="22" height="22" viewBox="0 0 22 22" fill="none" xmlns="http://www.w3.org/2000/svg">
<path d="M11.3249 14.8687V14.783C10.8868 14.7782 10.4678 14.7544 10.0631 14.7211C9.84409 15.2877 9.5346 15.8162 9.14893 16.2876C9.87742 16.4066 10.6154 16.4733 11.3535 16.4828L11.3249 14.8687Z" fill="#844476"/>
<path d="M9.39651 11.7166C9.04416 10.031 7.80143 8.65976 6.14921 8.14076C5.69212 8.00268 5.22073 7.93126 4.74459 7.93126C3.56376 7.93602 2.42101 8.37407 1.54967 9.16447C-0.388231 10.9262 -0.526313 13.9307 1.23542 15.8686C2.99715 17.8065 6.00161 17.9445 7.93951 16.1828C8.92989 15.2829 9.4965 14.0116 9.49174 12.6736C9.49174 12.3546 9.45841 12.0309 9.39651 11.7166ZM4.74459 12.0356C5.54927 12.0356 6.25873 12.5689 6.47775 13.345C6.74439 14.3021 6.19207 15.2924 5.23026 15.5638V15.9828C5.23026 16.2447 5.01599 16.459 4.75411 16.459C4.49224 16.459 4.27797 16.2447 4.27797 15.9828V15.5686C3.49233 15.3543 2.94953 14.6449 2.94477 13.8307C2.94477 13.5688 3.15903 13.3545 3.42091 13.3545C3.68279 13.3545 3.89706 13.5688 3.89706 13.8307C3.89706 14.2973 4.27797 14.6734 4.74459 14.6734C5.21121 14.6734 5.58736 14.2925 5.58736 13.8259C5.58736 13.3593 5.20645 12.9831 4.73983 12.9831C3.92562 12.9831 3.21617 12.4356 3.00667 11.6499C2.75431 10.6977 3.32568 9.70727 4.28273 9.45016V9.24541C4.28273 8.98354 4.497 8.76927 4.75888 8.76927C5.02075 8.76927 5.23502 8.98354 5.23502 9.24541V9.45968C6.01113 9.6787 6.54441 10.3882 6.54441 11.1928C6.54441 11.4547 6.33015 11.669 6.06827 11.669C5.80639 11.669 5.59213 11.4547 5.59213 11.1928C5.59213 10.7262 5.21121 10.3453 4.74459 10.3453C4.27797 10.3453 3.90182 10.7215 3.89706 11.1928C3.89706 11.6595 4.27797 12.0356 4.74459 12.0356Z" fill="#844476"/>
<path d="M11.3106 13.8259L11.282 12.1404C10.9868 12.1356 10.6963 12.1261 10.4202 12.107C10.4345 12.2975 10.444 12.4832 10.444 12.6689C10.444 13.0403 10.4059 13.4164 10.3345 13.783C10.6487 13.8116 10.9773 13.8259 11.3106 13.8259Z" fill="#844476"/>
<path d="M16.5241 5.94574C16.1956 6.11715 15.848 6.25523 15.4909 6.35999C14.4196 6.68376 13.0149 6.85994 11.5484 6.85994C10.1438 6.85994 8.80584 6.69805 7.77261 6.39808C7.4155 6.30285 7.07268 6.16953 6.74414 6.00288L6.77747 7.34561C7.31551 7.54559 7.81546 7.83127 8.2678 8.18838C8.28208 8.19314 8.29161 8.19314 8.30589 8.1979C9.22008 8.43122 10.3724 8.55501 11.5484 8.55501C12.9102 8.55501 14.2482 8.3836 15.2147 8.09315C16.248 7.7789 16.4765 7.45036 16.4765 7.38846C16.4765 7.3218 16.4717 7.2599 16.5241 7.19324V5.94574Z" fill="#844476"/>
<path d="M15.2102 4.05546C14.2436 3.76025 12.9057 3.5936 11.5439 3.5936C10.1726 3.5936 8.88704 3.76025 7.92523 4.05546C6.92056 4.36019 6.70154 4.66016 6.69678 4.75539C6.69678 4.75539 6.70154 4.75539 6.70154 4.76491C6.72535 4.86966 7.01103 5.19344 8.03474 5.48865C8.98226 5.76481 10.2298 5.91718 11.5439 5.91718C12.9057 5.91718 14.2389 5.75053 15.2055 5.46008C16.2387 5.15059 16.472 4.82205 16.472 4.75539C16.472 4.69349 16.2434 4.36971 15.2102 4.05546Z" fill="#844476"/>
<path d="M21.9902 17.2303V15.8019C21.6712 15.9638 21.3379 16.1019 20.9903 16.2066C19.9237 16.5304 18.5286 16.7066 17.0573 16.7066C15.7527 16.7066 14.4814 16.559 13.4815 16.2971C13.072 16.1923 12.6768 16.0495 12.2959 15.8638L12.3197 17.2446C12.3197 17.2494 12.3197 17.2494 12.3197 17.2541C12.3197 17.3256 12.5292 17.6446 13.5339 17.9541C14.4862 18.2445 15.7717 18.4064 17.1478 18.4064C18.5191 18.4064 19.8094 18.2398 20.7712 17.9398C21.7759 17.6255 21.9949 17.297 21.9949 17.2303H21.9902Z" fill="#844476"/>
<path d="M16.515 8.60262C16.1864 8.76927 15.8436 8.90735 15.4865 9.0121C14.4152 9.33588 13.0105 9.51205 11.5393 9.51205C10.8155 9.51205 10.0965 9.46444 9.38232 9.37397C9.768 9.90726 10.0537 10.5072 10.2346 11.1452C10.6441 11.1738 11.0869 11.1928 11.544 11.1928C11.5583 11.1928 11.5773 11.1928 11.5916 11.1928C12.3725 10.3358 14.4723 9.90726 16.515 9.85012V8.60262Z" fill="#844476"/>
<path d="M20.9569 13.5735C19.8951 13.8878 18.5142 14.0592 17.0668 14.0592C15.6621 14.0592 14.3242 13.8973 13.2909 13.5974C12.9338 13.4974 12.5862 13.364 12.2529 13.1974L12.272 14.2925L12.2767 14.6925C12.6481 15.1543 14.4241 15.7495 17.062 15.7495C18.438 15.7495 19.7379 15.5876 20.714 15.2924C21.7425 14.9782 21.9663 14.6544 21.9663 14.5877C21.9663 14.5354 21.9949 14.4782 21.9949 14.4306H21.9996V13.1688C21.6663 13.3355 21.3187 13.4783 20.9569 13.5735Z" fill="#844476"/>
<path d="M20.7337 11.2643C19.7623 10.969 18.4291 10.8119 17.0674 10.8119H16.9864C15.7199 10.8119 14.5152 10.9548 13.5915 11.2166C12.6059 11.4928 12.2678 11.8071 12.225 11.9356C12.2202 11.9451 12.2202 11.9499 12.2202 11.9547C12.2202 11.9547 12.2202 11.9547 12.2297 11.9737C12.2583 12.0737 12.5392 12.3975 13.5629 12.6974C14.5105 12.9688 15.758 13.1212 17.0721 13.1212C18.4291 13.1212 19.7147 12.9641 20.6908 12.6736C21.7478 12.3594 21.9859 12.0308 21.9907 11.9594V11.9547C21.9859 11.8832 21.7478 11.569 20.7337 11.2643Z" fill="#844476"/>
</svg>
