<svg width="26" height="26" viewBox="0 0 26 26" fill="none" xmlns="http://www.w3.org/2000/svg">
<path d="M20.6679 16.8086C19.4059 16.8086 18.3828 17.8317 18.3828 19.0937V19.8555H26V19.0937C26 17.8317 24.9769 16.8086 23.7149 16.8086H20.6679Z" fill="#A55C95"/>
<path d="M0 7.61719H24.4765V10.7148H0V7.61719Z" fill="#A55C95"/>
<path d="M19.9062 21.3789V26H24.4765V21.3789H22.9531V22.9024H21.4297V21.3789H19.9062Z" fill="#A55C95"/>
<path d="M12.2383 15.2851H7.66797V26H12.2383V15.2851ZM10.7149 22.1406H9.19143V19.0938H10.7149V22.1406Z" fill="#A55C95"/>
<path d="M1.52344 26H6.14453V15.2851H1.52344V26ZM3.09761 19.0938H4.62107V22.1406H3.09761V19.0938Z" fill="#A55C95"/>
<path d="M13.7617 26H18.3828V21.3789H16.8593V19.0938C16.8593 16.9938 18.568 15.2852 20.6679 15.2852H22.9531V12.2383H1.52344V13.7618H13.7617V26Z" fill="#A55C95"/>
<path d="M12.7693 3.04686L17.3399 0H7.13721L11.7071 3.04686H12.7693Z" fill="#A55C95"/>
<path d="M18.332 1.16953L13.2306 4.57031H11.246L6.14453 1.16907V6.09376H18.332V1.16953Z" fill="#A55C95"/>
</svg>
