<svg width="30" height="27" viewBox="0 0 30 27" fill="none" xmlns="http://www.w3.org/2000/svg">
<path d="M22.0312 0.21875C20.4033 0.21875 18.9108 0.734609 17.5953 1.75203C16.3341 2.72744 15.4944 3.9698 15 4.8732C14.5056 3.96975 13.6659 2.72744 12.4047 1.75203C11.0892 0.734609 9.59666 0.21875 7.96875 0.21875C3.42586 0.21875 0 3.93459 0 8.86215C0 14.1856 4.274 17.8279 10.7443 23.3417C11.843 24.2781 13.0884 25.3395 14.3829 26.4714C14.5535 26.6209 14.7727 26.7031 15 26.7031C15.2273 26.7031 15.4465 26.6209 15.6171 26.4715C16.9117 25.3394 18.157 24.278 19.2564 23.3411C25.726 17.8279 30 14.1856 30 8.86215C30 3.93459 26.5741 0.21875 22.0312 0.21875Z" fill="#844476"/>
</svg>
