<svg width="26" height="26" viewBox="0 0 26 26" fill="none" xmlns="http://www.w3.org/2000/svg">
<g clip-path="url(#clip0)">
<path d="M20.5833 4.33337V13H16.25V4.33337H9.75C11.1861 4.33499 12.5629 4.90619 13.5784 5.92166C14.5939 6.93713 15.1651 8.31395 15.1667 9.75004V17.3334C15.1667 17.6207 15.0525 17.8962 14.8494 18.0994C14.6462 18.3026 14.3707 18.4167 14.0833 18.4167H24.9167C25.204 18.4167 25.4795 18.3026 25.6827 18.0994C25.8859 17.8962 26 17.6207 26 17.3334V9.75004C25.9984 8.31395 25.4272 6.93713 24.4117 5.92166C23.3962 4.90619 22.0194 4.33499 20.5833 4.33337Z" fill="#A55C95"/>
<path d="M19.5 2.16667H21.6667V0H18.4167C18.1294 0 17.8538 0.114137 17.6506 0.317301C17.4475 0.520465 17.3333 0.796016 17.3333 1.08333V11.9167H19.5V2.16667Z" fill="#A55C95"/>
<path d="M14.0833 9.75004C14.0833 8.31345 13.5127 6.9357 12.4968 5.91988C11.481 4.90406 10.1033 4.33337 8.66667 4.33337C7.23008 4.33337 5.85233 4.90406 4.8365 5.91988C3.82068 6.9357 3.25 8.31345 3.25 9.75004V15.1667H14.0833V9.75004Z" fill="#A55C95"/>
<path d="M14.0833 16.25H0V18.4167H13C13.2873 18.4167 13.5629 18.3025 13.766 18.0994C13.9692 17.8962 14.0833 17.6207 14.0833 17.3333V16.25Z" fill="#A55C95"/>
<path d="M15.1667 19.5H20.5833V26H15.1667V19.5Z" fill="#A55C95"/>
</g>
<defs>
<clipPath id="clip0">
<rect width="26" height="26" fill="white"/>
</clipPath>
</defs>
</svg>
