<svg width="20" height="20" viewBox="0 0 20 20" fill="none" xmlns="http://www.w3.org/2000/svg">
<g clip-path="url(#clip0)">
<path d="M8.80758 0.636353C3.95121 0.636353 0 4.3481 0 8.91014C0 13.4724 3.95121 17.1839 8.80758 17.1839C13.6642 17.1839 17.6152 13.4724 17.6152 8.91014C17.6152 4.3481 13.6642 0.636353 8.80758 0.636353ZM8.80758 15.6565C4.8477 15.6565 1.62602 12.6301 1.62602 8.91018C1.62602 5.19029 4.8477 2.16382 8.80758 2.16382C12.7675 2.16382 15.9891 5.19025 15.9891 8.91014C15.9891 12.63 12.7675 15.6565 8.80758 15.6565Z" fill="white"/>
<path d="M19.7618 18.1205L15.1005 13.7418C14.7829 13.4434 14.2686 13.4434 13.9509 13.7418C13.6333 14.0399 13.6333 14.5236 13.9509 14.8217L18.6122 19.2005C18.771 19.3496 18.9789 19.4242 19.187 19.4242C19.3949 19.4242 19.603 19.3496 19.7618 19.2005C20.0794 18.9024 20.0794 18.4186 19.7618 18.1205Z" fill="white"/>
</g>
<defs>
<clipPath id="clip0">
<rect width="20" height="18.7879" fill="white" transform="translate(0 0.636353)"/>
</clipPath>
</defs>
</svg>
