<svg width="24" height="24" viewBox="0 0 24 24" fill="none" xmlns="http://www.w3.org/2000/svg">
<g clip-path="url(#clip0)">
<path d="M10.5691 0C4.74145 0 0 4.74145 0 10.5691C0 16.3971 4.74145 21.1382 10.5691 21.1382C16.3971 21.1382 21.1382 16.3971 21.1382 10.5691C21.1382 4.74145 16.3971 0 10.5691 0ZM10.5691 19.187C5.81723 19.187 1.95122 15.321 1.95122 10.5691C1.95122 5.81728 5.81723 1.95122 10.5691 1.95122C15.321 1.95122 19.187 5.81723 19.187 10.5691C19.187 15.321 15.321 19.187 10.5691 19.187Z" fill="#606060"/>
<path d="M23.7142 22.3344L18.1207 16.7409C17.7395 16.3598 17.1223 16.3598 16.7411 16.7409C16.36 17.1217 16.36 17.7397 16.7411 18.1205L22.3346 23.714C22.5252 23.9045 22.7746 23.9998 23.0244 23.9998C23.2738 23.9998 23.5236 23.9045 23.7142 23.714C24.0953 23.3332 24.0953 22.7153 23.7142 22.3344Z" fill="#606060"/>
</g>
<defs>
<clipPath id="clip0">
<rect width="24" height="24" fill="white"/>
</clipPath>
</defs>
</svg>
