<svg width="20" height="24" viewBox="0 0 20 24" fill="none" xmlns="http://www.w3.org/2000/svg">
<path d="M19.8067 22.2086L18.1629 7.20867C18.073 6.38803 17.3827 5.76923 16.5571 5.76923H15.3076V5.3077C15.3077 2.38102 12.9266 0 9.99998 0C7.07334 0 4.69228 2.38102 4.69228 5.3077V5.76923H3.44278C2.61726 5.76923 1.92689 6.38808 1.83698 7.20867L0.19317 22.2087C0.143295 22.6644 0.290155 23.1216 0.596108 23.4629C0.902061 23.8042 1.34053 24 1.79897 24H18.201C18.2843 24 18.367 23.9933 18.4484 23.9807C18.4509 23.9803 18.4535 23.9801 18.456 23.9797C18.4699 23.9775 18.4837 23.9745 18.4975 23.9719C18.5114 23.9692 18.5255 23.967 18.5393 23.964C18.5489 23.962 18.5584 23.9594 18.5679 23.9571C18.5858 23.9529 18.6037 23.949 18.6214 23.9441C18.8024 23.8952 18.9735 23.8148 19.1273 23.7072C19.1352 23.7016 19.1434 23.6964 19.1512 23.6907C19.2425 23.6243 19.3273 23.5481 19.4038 23.4628C19.7099 23.1215 19.8567 22.6643 19.8067 22.2086ZM6.07687 5.3077C6.07687 3.14452 7.83675 1.38464 9.99993 1.38464C12.1631 1.38464 13.923 3.14452 13.923 5.3077V5.76923H6.07687V5.3077ZM3.21342 7.35947C3.22626 7.24223 3.32489 7.15387 3.44278 7.15387H4.69228V9.23081C4.69228 9.61317 5.00226 9.92311 5.38458 9.92311C5.76689 9.92311 6.07687 9.61312 6.07687 9.23081V7.15387H13.923V9.23081C13.923 9.61317 14.233 9.92311 14.6153 9.92311C14.9977 9.92311 15.3076 9.61312 15.3076 9.23081V7.15387H16.5571C16.6751 7.15387 16.7737 7.24233 16.7865 7.35952L18.0285 18.6923H1.97147L3.21342 7.35947ZM18.3728 22.5386C18.3472 22.5673 18.2907 22.6154 18.201 22.6154H1.79897C1.70934 22.6154 1.65286 22.5673 1.62712 22.5386C1.60144 22.51 1.55976 22.4486 1.56956 22.3595L1.81978 20.0769H18.1802L18.4304 22.3595C18.4402 22.4486 18.3985 22.51 18.3728 22.5386Z" fill="#606060"/>
</svg>
