<svg width="20" height="20" viewBox="0 0 20 20" fill="none" xmlns="http://www.w3.org/2000/svg">
<circle cx="10" cy="10" r="10" fill="#A55C95"/>
<path d="M9.21924 13.0337C9.17529 12.9116 9.13623 12.7529 9.10205 12.5576C9.06787 12.3623 9.05078 12.1694 9.05078 11.979C9.05078 11.6812 9.10938 11.4126 9.22656 11.1733C9.34863 10.9292 9.49756 10.7021 9.67334 10.4922C9.854 10.2822 10.0469 10.0796 10.252 9.88428C10.4619 9.68896 10.6548 9.49854 10.8306 9.31299C11.0112 9.12744 11.1602 8.93213 11.2773 8.72705C11.3994 8.52197 11.4604 8.29736 11.4604 8.05322C11.4604 7.8335 11.4165 7.64307 11.3286 7.48193C11.2407 7.31592 11.1187 7.1792 10.9624 7.07178C10.811 6.95947 10.6353 6.87646 10.4351 6.82275C10.2397 6.76904 10.0298 6.74219 9.80518 6.74219C9.07764 6.74219 8.38428 7.06689 7.7251 7.71631V6.02441C8.52588 5.55566 9.35596 5.32129 10.2153 5.32129C10.6108 5.32129 10.9844 5.37256 11.3359 5.4751C11.6875 5.57764 11.9951 5.729 12.2588 5.9292C12.5225 6.12939 12.73 6.37842 12.8813 6.67627C13.0327 6.97412 13.1084 7.3208 13.1084 7.71631C13.1084 8.09229 13.0449 8.42676 12.918 8.71973C12.791 9.0127 12.6299 9.28369 12.4346 9.53271C12.2441 9.77686 12.0366 9.99414 11.812 10.1846C11.5923 10.375 11.3848 10.5654 11.1895 10.7559C10.999 10.9463 10.8403 11.144 10.7134 11.3491C10.5864 11.5542 10.5229 11.7812 10.5229 12.0303C10.5229 12.2402 10.5498 12.4307 10.6035 12.6016C10.6572 12.7725 10.7109 12.9165 10.7646 13.0337H9.21924ZM10.0542 16.1318C9.77588 16.1318 9.5293 16.0366 9.31445 15.8462C9.10938 15.6606 9.00684 15.4312 9.00684 15.1577C9.00684 14.8794 9.10938 14.6499 9.31445 14.4692C9.52441 14.2739 9.771 14.1763 10.0542 14.1763C10.3325 14.1763 10.5767 14.2739 10.7866 14.4692C10.9917 14.6499 11.0942 14.8794 11.0942 15.1577C11.0942 15.4312 10.9917 15.6606 10.7866 15.8462C10.5718 16.0366 10.3276 16.1318 10.0542 16.1318Z" fill="white"/>
</svg>
