<svg width="30" height="30" viewBox="0 0 30 30" fill="none" xmlns="http://www.w3.org/2000/svg">
<path d="M15.0037 0H14.9963C6.72563 0 0 6.7275 0 15C0 18.2812 1.0575 21.3225 2.85562 23.7919L0.98625 29.3644L6.75187 27.5213C9.12375 29.0925 11.9531 30 15.0037 30C23.2744 30 30 23.2706 30 15C30 6.72938 23.2744 0 15.0037 0Z" fill="#4CAF50"/>
<path d="M23.7319 21.1821C23.37 22.204 21.9338 23.0515 20.7881 23.299C20.0044 23.4658 18.9806 23.599 15.5344 22.1702C11.1263 20.344 8.28751 15.8646 8.06626 15.574C7.85439 15.2833 6.28501 13.2021 6.28501 11.0496C6.28501 8.89709 7.37814 7.84897 7.81876 7.39897C8.18064 7.02959 8.77876 6.86084 9.35251 6.86084C9.53813 6.86084 9.70501 6.87021 9.85501 6.87771C10.2956 6.89646 10.5169 6.92272 10.8075 7.61834C11.1694 8.49022 12.0506 10.6427 12.1556 10.864C12.2625 11.0852 12.3694 11.3852 12.2194 11.6758C12.0788 11.9758 11.955 12.109 11.7338 12.364C11.5125 12.619 11.3025 12.814 11.0813 13.0877C10.8788 13.3258 10.65 13.5808 10.905 14.0215C11.16 14.4527 12.0413 15.8908 13.3388 17.0458C15.0131 18.5365 16.3706 19.0127 16.8563 19.2152C17.2181 19.3652 17.6494 19.3296 17.9138 19.0483C18.2494 18.6865 18.6638 18.0865 19.0856 17.4958C19.3856 17.0721 19.7644 17.0196 20.1619 17.1696C20.5669 17.3102 22.71 18.3696 23.1506 18.589C23.5913 18.8102 23.8819 18.9152 23.9888 19.1008C24.0938 19.2865 24.0938 20.1583 23.7319 21.1821Z" fill="#FAFAFA"/>
</svg>
